<svg width="206" height="124" viewBox="0 0 206 124" fill="none" xmlns="http://www.w3.org/2000/svg">
<g filter="url(#filter0_i)">
<path d="M53.704 41.24C62.536 42.68 69.304 45.992 74.008 51.176C78.712 56.264 81.064 62.6 81.064 70.184C81.064 76.04 79.528 81.464 76.456 86.456C73.384 91.352 68.68 95.288 62.344 98.264C56.104 101.24 48.424 102.728 39.304 102.728C32.2 102.728 25.192 101.816 18.28 99.992C11.464 98.072 5.656 95.384 0.856 91.928L9.928 74.072C13.768 76.952 18.184 79.208 23.176 80.84C28.264 82.376 33.448 83.144 38.728 83.144C44.584 83.144 49.192 82.04 52.552 79.832C55.912 77.528 57.592 74.312 57.592 70.184C57.592 61.928 51.304 57.8 38.728 57.8H28.072V42.392L48.808 18.92H5.896V0.199993H76.456V15.32L53.704 41.24ZM105.227 74.216C109.259 74.216 112.571 75.512 115.163 78.104C117.755 80.6 119.051 83.912 119.051 88.04C119.051 89.96 118.811 91.88 118.331 93.8C117.851 95.72 116.795 98.6 115.163 102.44L106.955 123.176H92.6988L99.0348 100.28C96.6348 99.32 94.7148 97.784 93.2748 95.672C91.9308 93.464 91.2588 90.92 91.2588 88.04C91.2588 83.912 92.5548 80.6 95.1468 78.104C97.8348 75.512 101.195 74.216 105.227 74.216ZM164.082 38.072C178.29 38.072 188.754 40.904 195.474 46.568C202.29 52.232 205.698 59.816 205.698 69.32C205.698 75.464 204.162 81.08 201.09 86.168C198.018 91.16 193.314 95.192 186.978 98.264C180.738 101.24 173.01 102.728 163.794 102.728C156.69 102.728 149.682 101.816 142.77 99.992C135.954 98.072 130.146 95.384 125.346 91.928L134.562 74.072C138.402 76.952 142.818 79.208 147.81 80.84C152.802 82.376 157.938 83.144 163.218 83.144C169.074 83.144 173.682 81.992 177.042 79.688C180.402 77.384 182.082 74.168 182.082 70.04C182.082 65.72 180.306 62.456 176.754 60.248C173.298 58.04 167.25 56.936 158.61 56.936H132.834L138.018 0.199993H199.506V18.92H157.458L155.874 38.072H164.082Z" fill="#A18F5F"/>
</g>
<defs>
<filter id="filter0_i" x="0.855469" y="0.199982" width="204.842" height="126.976" filterUnits="userSpaceOnUse" color-interpolation-filters="sRGB">
<feFlood flood-opacity="0" result="BackgroundImageFix"/>
<feBlend mode="normal" in="SourceGraphic" in2="BackgroundImageFix" result="shape"/>
<feColorMatrix in="SourceAlpha" type="matrix" values="0 0 0 0 0 0 0 0 0 0 0 0 0 0 0 0 0 0 127 0" result="hardAlpha"/>
<feOffset dy="4"/>
<feGaussianBlur stdDeviation="2"/>
<feComposite in2="hardAlpha" operator="arithmetic" k2="-1" k3="1"/>
<feColorMatrix type="matrix" values="0 0 0 0 0 0 0 0 0 0 0 0 0 0 0 0 0 0 0.25 0"/>
<feBlend mode="normal" in2="shape" result="effect1_innerShadow"/>
</filter>
</defs>
</svg>
