<svg width="390" height="105" viewBox="0 0 390 105" fill="none" xmlns="http://www.w3.org/2000/svg">
<g filter="url(#filter0_i)">
<path d="M39.176 40.072C53.384 40.072 63.848 42.904 70.568 48.568C77.384 54.232 80.792 61.816 80.792 71.32C80.792 77.464 79.256 83.08 76.184 88.168C73.112 93.16 68.408 97.192 62.072 100.264C55.832 103.24 48.104 104.728 38.888 104.728C31.784 104.728 24.776 103.816 17.864 101.992C11.048 100.072 5.24 97.384 0.44 93.928L9.656 76.072C13.496 78.952 17.912 81.208 22.904 82.84C27.896 84.376 33.032 85.144 38.312 85.144C44.168 85.144 48.776 83.992 52.136 81.688C55.496 79.384 57.176 76.168 57.176 72.04C57.176 67.72 55.4 64.456 51.848 62.248C48.392 60.04 42.344 58.936 33.704 58.936H7.928L13.112 2.19999H74.6V20.92H32.552L30.968 40.072H39.176ZM209.95 2.19999V17.32L172.51 103H147.166L183.31 21.208H149.902V37.624H129.166V2.19999H209.95ZM286.92 50.008C291.912 52.504 295.704 55.768 298.296 59.8C300.984 63.832 302.328 68.488 302.328 73.768C302.328 80.008 300.552 85.48 297 90.184C293.448 94.792 288.456 98.392 282.024 100.984C275.592 103.48 268.152 104.728 259.704 104.728C251.256 104.728 243.816 103.48 237.384 100.984C231.048 98.392 226.104 94.792 222.552 90.184C219.096 85.48 217.368 80.008 217.368 73.768C217.368 68.488 218.664 63.832 221.256 59.8C223.944 55.768 227.736 52.504 232.632 50.008C228.888 47.704 226.008 44.824 223.992 41.368C221.976 37.816 220.968 33.784 220.968 29.272C220.968 23.416 222.6 18.328 225.864 14.008C229.128 9.68799 233.688 6.37599 239.544 4.07199C245.4 1.672 252.12 0.471998 259.704 0.471998C267.384 0.471998 274.152 1.672 280.008 4.07199C285.96 6.37599 290.568 9.68799 293.832 14.008C297.096 18.328 298.728 23.416 298.728 29.272C298.728 33.784 297.72 37.816 295.704 41.368C293.688 44.824 290.76 47.704 286.92 50.008ZM259.704 17.608C255 17.608 251.208 18.76 248.328 21.064C245.544 23.272 244.152 26.344 244.152 30.28C244.152 34.12 245.544 37.144 248.328 39.352C251.112 41.56 254.904 42.664 259.704 42.664C264.504 42.664 268.344 41.56 271.224 39.352C274.104 37.144 275.544 34.12 275.544 30.28C275.544 26.344 274.104 23.272 271.224 21.064C268.344 18.76 264.504 17.608 259.704 17.608ZM259.704 87.592C265.56 87.592 270.168 86.296 273.528 83.704C276.984 81.016 278.712 77.464 278.712 73.048C278.712 68.632 276.984 65.128 273.528 62.536C270.168 59.944 265.56 58.648 259.704 58.648C253.944 58.648 249.384 59.944 246.024 62.536C242.664 65.128 240.984 68.632 240.984 73.048C240.984 77.56 242.664 81.112 246.024 83.704C249.384 86.296 253.944 87.592 259.704 87.592ZM347.567 40.072C361.775 40.072 372.239 42.904 378.959 48.568C385.775 54.232 389.183 61.816 389.183 71.32C389.183 77.464 387.647 83.08 384.575 88.168C381.503 93.16 376.799 97.192 370.463 100.264C364.223 103.24 356.495 104.728 347.279 104.728C340.175 104.728 333.167 103.816 326.255 101.992C319.439 100.072 313.631 97.384 308.831 93.928L318.047 76.072C321.887 78.952 326.303 81.208 331.295 82.84C336.287 84.376 341.423 85.144 346.703 85.144C352.559 85.144 357.167 83.992 360.527 81.688C363.887 79.384 365.567 76.168 365.567 72.04C365.567 67.72 363.791 64.456 360.239 62.248C356.783 60.04 350.735 58.936 342.095 58.936H316.319L321.503 2.19999H382.991V20.92H340.943L339.359 40.072H347.567Z" fill="#A18F5F"/>
</g>
<defs>
<filter id="filter0_i" x="0.439453" y="0.471985" width="388.743" height="108.256" filterUnits="userSpaceOnUse" color-interpolation-filters="sRGB">
<feFlood flood-opacity="0" result="BackgroundImageFix"/>
<feBlend mode="normal" in="SourceGraphic" in2="BackgroundImageFix" result="shape"/>
<feColorMatrix in="SourceAlpha" type="matrix" values="0 0 0 0 0 0 0 0 0 0 0 0 0 0 0 0 0 0 127 0" result="hardAlpha"/>
<feOffset dy="4"/>
<feGaussianBlur stdDeviation="2"/>
<feComposite in2="hardAlpha" operator="arithmetic" k2="-1" k3="1"/>
<feColorMatrix type="matrix" values="0 0 0 0 0 0 0 0 0 0 0 0 0 0 0 0 0 0 0.25 0"/>
<feBlend mode="normal" in2="shape" result="effect1_innerShadow"/>
</filter>
</defs>
</svg>
