<svg width="166" height="103" viewBox="0 0 166 103" fill="none" xmlns="http://www.w3.org/2000/svg">
<g filter="url(#filter0_i)">
<path d="M81.528 0.199993V15.32L44.088 101H18.744L54.888 19.208H21.48V35.624H0.744V0.199993H81.528ZM124.082 38.072C138.29 38.072 148.754 40.904 155.474 46.568C162.29 52.232 165.698 59.816 165.698 69.32C165.698 75.464 164.162 81.08 161.09 86.168C158.018 91.16 153.314 95.192 146.978 98.264C140.738 101.24 133.01 102.728 123.794 102.728C116.69 102.728 109.682 101.816 102.77 99.992C95.9543 98.072 90.1463 95.384 85.3463 91.928L94.5623 74.072C98.4023 76.952 102.818 79.208 107.81 80.84C112.802 82.376 117.938 83.144 123.218 83.144C129.074 83.144 133.682 81.992 137.042 79.688C140.402 77.384 142.082 74.168 142.082 70.04C142.082 65.72 140.306 62.456 136.754 60.248C133.298 58.04 127.25 56.936 118.61 56.936H92.8343L98.0183 0.199993H159.506V18.92H117.458L115.874 38.072H124.082Z" fill="#A18F5F"/>
</g>
<defs>
<filter id="filter0_i" x="0.744141" y="0.199982" width="164.954" height="106.528" filterUnits="userSpaceOnUse" color-interpolation-filters="sRGB">
<feFlood flood-opacity="0" result="BackgroundImageFix"/>
<feBlend mode="normal" in="SourceGraphic" in2="BackgroundImageFix" result="shape"/>
<feColorMatrix in="SourceAlpha" type="matrix" values="0 0 0 0 0 0 0 0 0 0 0 0 0 0 0 0 0 0 127 0" result="hardAlpha"/>
<feOffset dy="4"/>
<feGaussianBlur stdDeviation="2"/>
<feComposite in2="hardAlpha" operator="arithmetic" k2="-1" k3="1"/>
<feColorMatrix type="matrix" values="0 0 0 0 0 0 0 0 0 0 0 0 0 0 0 0 0 0 0.25 0"/>
<feBlend mode="normal" in2="shape" result="effect1_innerShadow"/>
</filter>
</defs>
</svg>
