<svg width="560" height="358" viewBox="0 0 560 358" fill="none" xmlns="http://www.w3.org/2000/svg">
<path opacity="0.4" d="M558.5 76.4094C558.5 72.7885 555.684 69.9095 552.125 69.9095H551.814H551.498H551.176H550.849H550.515H550.177H549.833H549.483H549.128H548.767H548.401H548.03H547.653H547.271H546.884H546.491H546.093H545.69H545.282H544.868H544.449H544.025H543.596H543.162H542.722H542.278H541.828H541.374H540.914H540.449H539.98H539.505H539.026H538.542H538.053H537.559H537.06H536.556H536.048H535.534H535.017H534.494H533.967H533.434H532.898H532.357H531.811H531.26H530.705H530.146H529.581H529.013H528.44H527.862H527.28H526.694H526.103H525.508H524.909H524.305H523.697H523.085H522.469H521.848H521.223H520.594H519.961H519.323H518.682H518.036H517.387H516.733H516.075H515.414H514.748H514.078H513.405H512.728H512.046H511.361H510.672H509.979H509.283H508.582H507.878H507.17H506.459H505.744H505.025H504.302H503.576H502.846H502.113H501.376H500.636H499.892H499.145H498.394H497.64H496.882H496.121H495.357H494.589H493.818H493.044H492.267H491.486H490.702H489.914H489.124H488.33H487.534H486.734H485.931H485.125H484.316H483.504H482.689H481.871H481.05H480.226H479.399H478.569H477.737H476.901H476.063H475.222H474.378H473.532H472.682H471.83H470.976H470.118H469.258H468.396H467.53H466.663H465.792H464.919H464.044H463.166H462.286H461.403H460.518H459.631H458.741H457.848H456.954H456.057H455.158H454.256H453.353H452.447H451.539H450.628H449.716H448.802H447.885H446.966H446.046H445.123H444.198H443.271H442.343H441.412H440.48H439.545H438.609H437.671H436.731H435.789H434.845H433.9H432.953H432.004H431.054H430.102H429.148H428.192H427.235H426.277H425.317H424.355H423.392H422.427H421.461H420.493H419.524H418.554H417.582H416.609H415.634H414.659H413.682H412.703H411.724H410.743H409.761H408.778H407.793H406.808H405.821H404.834H403.845H402.855H401.865H400.873H399.88H398.887H397.892H396.897H395.9H394.903H393.905H392.906H391.907H390.906H389.905H388.903H387.901H386.898H385.894H384.889H383.884H382.878H381.872H380.865H379.858H378.85H377.842H376.833H375.824H374.814H373.804H372.794H371.783H370.772H369.761H368.75H367.738H366.726H365.714H364.701H363.689H362.676H361.663H360.65H359.638H358.625H357.612H356.599H355.586H354.573H353.56H352.547H351.534H350.522H349.51H348.497H347.485H346.474H345.462H344.451H343.44H342.429H341.419H340.409H339.4H338.391H337.382H336.374H335.366H334.359H333.352H332.346H331.34H330.335H329.331H328.327H327.324H326.321H325.32H324.319H323.318H322.319H321.32H320.322H319.325H318.329H317.334H316.339H315.346H314.353H313.362H312.371H311.382H310.393H309.406H308.419H307.434H306.45H305.467H304.485H303.505H302.525H301.547H300.57H299.595H298.62H297.647H296.676H295.706H294.737H293.769H292.803H291.839H290.876H289.915H288.955H287.996H287.04H286.084H285.131H284.179H283.229H282.28H281.333H280.388H279.445H278.503H277.564H276.626H275.69H274.756H273.823H272.893H271.965H271.038H270.114H269.191H268.271H267.353H266.436H265.522H264.61H263.7H262.793H261.887H260.984H260.083H259.184H258.287H257.393H256.501H255.612H254.724H253.84H252.957H252.077H251.2H250.325H249.452H248.583H247.715H246.85H245.988H245.129H244.272H243.417H242.566H241.717H240.871H240.027H239.187H238.349H237.514H236.682H235.852H235.026H234.202H233.382H232.564H231.75H230.938H230.13H229.324H228.522H227.722H226.926H226.133H225.343H224.556H223.773H222.992H222.215H221.442H220.671H219.904H219.14H218.38H217.623H216.869H216.119H215.372H214.629H213.889H213.153H212.42H211.691H210.965H210.243H209.525H208.81H208.099H207.392H206.688H205.989H205.293H204.6H203.912H203.227H202.547H201.87H201.197H200.528H199.863H199.202H198.545H197.892H197.243H196.598H195.957H195.32H194.688H194.059H193.435H192.815H192.199H191.588H190.98H190.377H189.778H189.184H188.594H188.008H187.427H186.85H186.278H185.71H185.147H184.588H184.033H183.484H182.938H182.398H181.862H181.331H180.804H180.282H179.765H179.252H178.745H178.242H177.744H177.25H176.762H176.278H175.8H175.326H174.857H174.393H173.935H173.481H173.032H172.588H172.15H171.716H171.288H170.865H170.447H170.034H169.626H169.224H168.826H168.434H168.048H167.667H167.291H166.92H166.555H166.195H165.841H165.492H165.149H164.811H164.479H164.152H163.831H163.516H163.206H162.902H162.603H162.31H162.023H161.741H161.466H161.196H160.932H160.673H160.421H160.174H159.934C148.395 69.9095 138.397 65.4658 128.514 58.9742C122.293 54.8878 115.998 49.9013 109.36 44.643C105.535 41.6132 101.596 38.4932 97.4918 35.4031C75.1697 18.5967 46.9969 1.86619 1.5 1.50592V12.7503C17.8795 16.274 34.1645 29.8409 43.5456 42.5507C48.338 49.0436 51.5293 55.577 51.8383 60.6563C51.9954 63.2392 51.4131 65.6335 49.6956 67.3709C47.9904 69.096 45.4252 69.9095 42.1854 69.9095H42.1036H42.0219H41.9402H41.8586H41.777H41.6955H41.6141H41.5327H41.4514H41.3701H41.2889H41.2078H41.1267H41.0457H40.9647H40.8839H40.803H40.7223H40.6415H40.5609H40.4803H40.3998H40.3194H40.239H40.1586H40.0784H39.9982H39.918H39.838H39.7579H39.678H39.5981H39.5182H39.4385H39.3588H39.2792H39.1996H39.1201H39.0406H38.9612H38.8819H38.8027H38.7234H38.6443H38.5652H38.4863H38.4073H38.3284H38.2496H38.1708H38.0922H38.0135H37.935H37.8565H37.7781H37.6997H37.6214H37.5432H37.465H37.3869H37.3089H37.2309H37.153H37.0751H36.9974H36.9197H36.842H36.7644H36.6869H36.6094H36.532H36.4548H36.3775H36.3003H36.2232H36.1461H36.0692H35.9922H35.9153H35.8386H35.7618H35.6852H35.6086H35.532H35.4556H35.3792H35.3029H35.2266H35.1504H35.0743H34.9982H34.9222H34.8463H34.7704H34.6947H34.619H34.5433H34.4677H34.3922H34.3168H34.2413H34.166H34.0908H34.0156H33.9405H33.8655H33.7905H33.7156H33.6407H33.566H33.4913H33.4166H33.342H33.2676H33.1932H33.1188H33.0445H32.9703H32.8961H32.822H32.748H32.6741H32.6002H32.5264H32.4527H32.379H32.3054H32.2319H32.1584H32.0851H32.0117H31.9385H31.8653H31.7922H31.7192H31.6462H31.5733H31.5005H31.4277H31.355H31.2825H31.2099H31.1375H31.0651H30.9927H30.9205H30.8483H30.7761H30.7041H30.6321H30.5602H30.4884H30.4166H30.345H30.2734H30.2018H30.1303H30.059H29.9876H29.9164H29.8452H29.774H29.703H29.6321H29.5612H29.4904H29.4196H29.3489H29.2783H29.2078H29.1373H29.067H28.9966H28.9264H28.8563H28.7861H28.7161H28.6462H28.5763H28.5065H28.4368H28.3671H28.2975H28.228H28.1586H28.0893H28.02H27.9508H27.8817H27.8126H27.7436H27.6747H27.6059H27.5371H27.4684H27.3998H27.3313H27.2628H27.1944H27.1261H27.0579H26.9897H26.9216H26.8536H26.7857H26.7178H26.65H26.5823H26.5147H26.4471H26.3796H26.3123H26.2449H26.1777H26.1105H26.0434H25.9764H25.9094H25.8425H25.7758H25.709H25.6424H25.5758H25.5093H25.4429H25.3766H25.3103H25.2441H25.178H25.112H25.046H24.9802H24.9144H24.8486H24.783H24.7175H24.652H24.5865H24.5212H24.4559H24.3908H24.3257H24.2607H24.1957H24.1309H24.0661H24.0014H23.9368H23.8722H23.8077H23.7433H23.679H23.6148H23.5507H23.4866H23.4225H23.3586H23.2948H23.2311H23.1674H23.1038H23.0403H22.9768H22.9135H22.8502H22.787H22.7238H22.6608H22.5978H22.535H22.4722H22.4094H22.3468H22.2842H22.2217H22.1594H22.097H22.0348H21.9727H21.9105H21.8486H21.7866H21.7248H21.663H21.6014H21.5398H21.4783H21.4169H21.3555H21.2943H21.233H21.1719H21.1109H21.05H20.9891H20.9283H20.8677H20.8071H20.7465H20.6861H20.6257H20.5654H20.5052H20.4451H20.3851H20.3251H20.2653H20.2054H20.1458H20.0861H20.0266H19.9672H19.9078H19.8485H19.7893H19.7302H19.6711H19.6122H19.5533H19.4945H19.4358H19.3772H19.3187H19.2602H19.2018H19.1436H19.0854H19.0272H18.9692H18.9113H18.8534H18.7957H18.7379H18.6804H18.6228H18.5654H18.508H18.4507H18.3936H18.3365H18.2795H18.2225H18.1657H18.1089H18.0522H17.9957H17.9392H17.8828H17.8264H17.7702H17.7141H17.658H17.602H17.5461H17.4903H17.4346H17.3789H17.3234H17.2679H17.2125H17.1572H17.102H17.0469H16.9919H16.9369H16.8821H16.8273H16.7726H16.718H16.6635H16.6091H16.5547H16.5005H16.4464H16.3923H16.3383H16.2844H16.2306H16.1769H16.1232H16.0697H16.0162H15.9628H15.9095H15.8564H15.8033H15.7502H15.6973H15.6445H15.5917H15.5391H15.4865H15.434H15.3817H15.3293H15.2772H15.225H15.173H15.121H15.0692H15.0174H14.9657H14.9141H14.8627H14.8112H14.7599H14.7087H14.6575H14.6065H14.5555H14.5047H14.4539H14.4032H14.3526H14.3021H14.2517H14.2014H14.1511H14.101H14.051H14.001H13.9511H13.9014H13.8517H13.8021H13.7526H13.7031H13.6538H13.6046H13.5555H13.5064H13.4575H13.4086H13.3598H13.3112H13.2626H13.2141H13.1656H13.1174H13.0692H13.021H12.973H12.925H12.8772H12.8295H12.7818H12.7342H12.6867H12.6393H12.592H12.5449H12.4977H12.4507H12.4039H12.357H12.3103H12.2637H12.2171H12.1707H12.1243H12.0781H12.0319H11.9858H11.9398H11.894H11.8481H11.8025H11.7569H11.7114H11.666H11.6206H11.5754H11.5303H11.4852H11.4403H11.3954H11.3507H11.3061H11.2615H11.217H11.1727H11.1284H11.0842H11.0402H10.9962H10.9523H10.9085H10.8648H10.8212H10.7777H10.7343H10.691H10.6478H10.6046H10.5616H10.5187H10.4758H10.4331H10.3905H10.348H10.3055H10.2632H10.2209H10.1788H10.1367H10.0947H10.0529H10.0111H9.96942H9.92786H9.88641H9.84503C6.25745 69.9095 3.35431 72.8173 3.35431 76.4095V350C3.35431 353.59 6.26447 356.5 9.85431 356.5H552C555.59 356.5 558.5 353.59 558.5 350V76.4094Z" stroke="#A18F5F" stroke-width="3"/>
</svg>
