<svg width="280" height="350" viewBox="0 0 280 350" fill="none" xmlns="http://www.w3.org/2000/svg">
<path opacity="0.4" d="M278.5 275.119C278.5 278.722 275.63 281.619 272.053 281.619H271.854H271.653H271.45H271.245H271.037H270.827H270.615H270.401H270.185H269.966H269.746H269.523H269.298H269.071H268.842H268.611H268.378H268.143H267.905H267.666H267.425H267.181H266.936H266.689H266.439H266.188H265.935H265.679H265.422H265.163H264.902H264.638H264.373H264.106H263.838H263.567H263.294H263.02H262.743H262.465H262.185H261.903H261.619H261.334H261.046H260.757H260.466H260.173H259.879H259.583H259.284H258.985H258.683H258.38H258.075H257.768H257.46H257.149H256.838H256.524H256.209H255.892H255.574H255.254H254.932H254.609H254.284H253.957H253.629H253.299H252.968H252.635H252.301H251.965H251.627H251.288H250.948H250.606H250.262H249.917H249.571H249.223H248.873H248.522H248.17H247.816H247.461H247.105H246.747H246.387H246.026H245.664H245.301H244.936H244.569H244.202H243.833H243.463H243.091H242.718H242.344H241.969H241.592H241.214H240.835H240.454H240.072H239.69H239.305H238.92H238.533H238.146H237.757H237.366H236.975H236.583H236.189H235.794H235.398H235.001H234.603H234.204H233.804H233.402H233H232.596H232.192H231.786H231.379H230.972H230.563H230.153H229.742H229.331H228.918H228.504H228.09H227.674H227.257H226.84H226.422H226.002H225.582H225.161H224.739H224.316H223.892H223.468H223.042H222.616H222.189H221.761H221.332H220.902H220.472H220.041H219.609H219.176H218.743H218.309H217.874H217.438H217.001H216.564H216.127H215.688H215.249H214.809H214.368H213.927H213.485H213.043H212.6H212.156H211.711H211.267H210.821H210.375H209.928H209.481H209.033H208.585H208.136H207.686H207.236H206.786H206.335H205.883H205.431H204.979H204.526H204.073H203.619H203.165H202.71H202.255H201.799H201.344H200.887H200.431H199.974H199.516H199.059H198.6H198.142H197.683H197.224H196.765H196.305H195.845H195.385H194.925H194.464H194.003H193.542H193.08H192.618H192.157H191.694H191.232H190.77H190.307H189.844H189.381H188.918H188.455H187.991H187.528H187.064H186.6H186.136H185.673H185.209H184.744H184.28H183.816H183.352H182.888H182.423H181.959H181.495H181.031H180.566H180.102H179.638H179.174H178.71H178.246H177.782H177.318H176.854H176.39H175.927H175.463H175H174.537H174.074H173.611H173.148H172.685H172.223H171.761H171.299H170.837H170.376H169.914H169.453H168.992H168.532H168.072H167.612H167.152H166.692H166.233H165.774H165.316H164.858H164.4H163.942H163.485H163.028H162.572H162.116H161.66H161.205H160.75H160.296H159.842H159.389H158.936H158.483H158.031H157.579H157.128H156.678H156.228H155.778H155.329H154.88H154.432H153.985H153.538H153.092H152.646H152.201H151.756H151.312H150.869H150.426H149.984H149.543H149.102H148.662H148.222H147.784H147.346H146.908H146.472H146.036H145.601H145.166H144.732H144.299H143.867H143.436H143.005H142.575H142.146H141.718H141.291H140.864H140.438H140.014H139.59H139.166H138.744H138.323H137.902H137.483H137.064H136.646H136.229H135.814H135.399H134.985H134.572H134.16H133.749H133.339H132.93H132.521H132.115H131.709H131.304H130.9H130.497H130.095H129.695H129.295H128.897H128.499H128.103H127.708H127.314H126.921H126.529H126.139H125.749H125.361H124.974H124.589H124.204H123.821H123.439H123.058H122.678H122.3H121.923H121.547H121.172H120.799H120.427H120.056H119.687H119.319H118.952H118.587H118.223H117.86H117.499H117.139H116.781H116.424H116.068H115.714H115.361H115.01H114.66H114.312H113.965H113.619H113.275H112.933H112.592H112.252H111.914H111.578H111.243H110.91H110.578H110.248H109.919H109.592H109.267H108.943H108.621H108.3H107.981H107.664H107.348H107.034H106.722H106.411H106.102H105.795H105.489H105.186H104.884H104.583H104.285H103.988H103.693H103.399H103.108H102.818H102.53H102.244H101.96H101.677H101.396H101.118H100.841H100.566H100.292H100.021H99.7516H99.4841H99.2185H98.9548H98.693H98.4332H98.1753H97.9194H97.6654H97.4135H97.1635H96.9155H96.6695H96.4255H96.1835H95.9436H95.7057H95.4699H95.2361H95.0044H94.7747H94.5472H94.3218H94.0984H93.8772H93.6581H93.4411H93.2263H93.0136H92.8031H92.5948H92.3886H92.1846H91.9829H91.7833H91.5859H91.3908H91.1979H91.0073H90.8189H90.6328H90.4489H90.2673H90.088H89.911H89.7364H89.564H89.394H89.2263H89.0609H88.8979H88.7373H88.5791H88.4232H88.2697H88.1186H87.97H87.8237H87.6799H87.5385H87.3996H87.2631H87.1291H86.9975H86.8685H86.7419H86.6179C79.866 281.619 74.217 286.299 68.9009 292.602C65.5195 296.612 62.0894 301.516 58.4847 306.67C56.4155 309.629 54.2888 312.67 52.0806 315.671C40.0658 332 25.2023 347.837 1.5 348.48V337.373C5.9769 335.524 10.2804 331.412 14.0384 326.453C18.118 321.069 21.7077 314.482 24.3185 308.097C26.9199 301.735 28.6019 295.444 28.7631 290.661C28.8431 288.287 28.5569 286.097 27.6524 284.445C26.6812 282.672 25.0423 281.619 22.847 281.619H22.8149H22.7828H22.7508H22.7188H22.6867H22.6547H22.6227H22.5908H22.5588H22.5269H22.4949H22.463H22.4312H22.3993H22.3674H22.3356H22.3038H22.272H22.2402H22.2084H22.1767H22.145H22.1133H22.0816H22.0499H22.0182H21.9866H21.955H21.9234H21.8918H21.8602H21.8286H21.7971H21.7656H21.7341H21.7026H21.6711H21.6397H21.6083H21.5769H21.5455H21.5141H21.4828H21.4514H21.4201H21.3888H21.3575H21.3262H21.295H21.2637H21.2325H21.2013H21.1702H21.139H21.1078H21.0767H21.0456H21.0145H20.9835H20.9524H20.9214H20.8904H20.8594H20.8284H20.7974H20.7665H20.7356H20.7047H20.6738H20.6429H20.612H20.5812H20.5504H20.5196H20.4888H20.4581H20.4273H20.3966H20.3659H20.3352H20.3045H20.2739H20.2433H20.2126H20.182H20.1515H20.1209H20.0904H20.0598H20.0294H19.9989H19.9684H19.938H19.9075H19.8771H19.8467H19.8163H19.786H19.7557H19.7253H19.695H19.6648H19.6345H19.6043H19.574H19.5439H19.5137H19.4835H19.4533H19.4232H19.3931H19.363H19.3329H19.3029H19.2729H19.2428H19.2129H19.1829H19.1529H19.123H19.093H19.0631H19.0333H19.0034H18.9736H18.9437H18.9139H18.8842H18.8544H18.8246H18.7949H18.7652H18.7355H18.7058H18.6762H18.6465H18.6169H18.5873H18.5577H18.5282H18.4987H18.4691H18.4396H18.4102H18.3807H18.3513H18.3218H18.2924H18.2631H18.2337H18.2043H18.175H18.1457H18.1164H18.0872H18.0579H18.0287H17.9995H17.9703H17.9411H17.912H17.8829H17.8538H17.8246H17.7956H17.7665H17.7375H17.7085H17.6795H17.6505H17.6216H17.5927H17.5638H17.5349H17.506H17.4771H17.4483H17.4195H17.3907H17.3619H17.3332H17.3044H17.2757H17.247H17.2184H17.1897H17.1611H17.1324H17.1039H17.0753H17.0467H17.0182H16.9897H16.9612H16.9327H16.9043H16.8758H16.8474H16.819H16.7906H16.7623H16.734H16.7057H16.6774H16.6491H16.6208H16.5926H16.5644H16.5362H16.508H16.4799H16.4518H16.4236H16.3956H16.3675H16.3394H16.3114H16.2834H16.2554H16.2274H16.1995H16.1716H16.1437H16.1158H16.0879H16.0601H16.0323H16.0045H15.9767H15.9489H15.9212H15.8935H15.8658H15.8381H15.8104H15.7828H15.7552H15.7276H15.7H15.6725H15.6449H15.6174H15.5899H15.5625H15.535H15.5076H15.4802H15.4528H15.4254H15.3981H15.3708H15.3434H15.3162H15.2889H15.2617H15.2344H15.2072H15.1801H15.1529H15.1258H15.0987H15.0716H15.0445H15.0175H14.9904H14.9634H14.9364H14.9095H14.8825H14.8556H14.8287H14.8018H14.775H14.7481H14.7213H14.6945H14.6677H14.641H14.6143H14.5875H14.5609H14.5342H14.5075H14.4809H14.4543H14.4277H14.4012H14.3746H14.3481H14.3216H14.2951H14.2687H14.2422H14.2159H14.1895H14.1631H14.1367H14.1104H14.0841H14.0578H14.0316H14.0053H13.9791H13.9529H13.9268H13.9006H13.8745H13.8484H13.8223H13.7962H13.7702H13.7442H13.7182H13.6922H13.6663H13.6403H13.6144H13.5885H13.5627H13.5368H13.511H13.4852H13.4594H13.4337H13.4079H13.3822H13.3565H13.3309H13.3052H13.2796H13.254H13.2284H13.2029H13.1773H13.1518H13.1263H13.1009H13.0754H13.05H13.0246H12.9992H12.9739H12.9485H12.9232H12.8979H12.8727H12.8474H12.8222H12.797H12.7718H12.7467H12.7215H12.6964H12.6713H12.6463H12.6212H12.5962H12.5712H12.5462H12.5213H12.4963H12.4714H12.4466H12.4217H12.3969H12.372H12.3473H12.3225H12.2977H12.273H12.2483H12.2236H12.199H12.1743H12.1497H12.1251H12.1006H12.076H12.0515H12.027H12.0025H11.9781H11.9536H11.9292H11.9048H11.8805H11.8561H11.8318H11.8076H11.7833H11.759H11.7348H11.7106H11.6864H11.6623H11.6382H11.614H11.59H11.5659H11.5419H11.5179H11.4939H11.4699H11.446H11.422H11.3981H11.3743H11.3504H11.3266H11.3028H11.279H11.2552H11.2315H11.2078H11.1841H11.1604H11.1368H11.1132H11.0896H11.066H11.0424H11.0189H10.9954H10.972H10.9485H10.9251H10.9017H10.8783H10.8549H10.8316H10.8083H10.785H10.7617H10.7385H10.7153H10.6921H10.6689H10.6458H10.6226H10.5995H10.5764H10.5534H10.5304H10.5074H10.4844H10.4614H10.4385H10.4156H10.3927H10.3698H10.347H10.3242H10.3014H10.2787H10.2559H10.2332H10.2105H10.1878H10.1652H10.1426H10.12H10.0974H10.0749H10.0523H10.0298H10.0074H9.98489H9.96246H9.94006H9.91769H9.89532H9.87299H9.85071H9.8284H9.80615H9.78391H9.76172H9.73953H9.71738H9.69522H9.67313H9.65103H9.62897H9.60693H9.5849H9.56293H9.54095H9.51901H9.4971H9.47522H9.45334H9.43149H9.40967H9.38788H9.36612H9.34436H9.32266H9.30096H9.2793H9.25763H9.23602H9.21442H9.19284H9.1713H9.14978H9.1283H9.10681H9.08536H9.06393H9.04254H9.02118H8.99982C5.41104 281.619 2.50424 278.71 2.50424 275.119V8C2.50424 4.41016 5.4144 1.5 9.00424 1.5H272C275.59 1.5 278.5 4.41016 278.5 8V275.119Z" stroke="#A18F5F" stroke-width="3"/>
</svg>
