<svg width="82" height="82" viewBox="0 0 82 82" fill="none" xmlns="http://www.w3.org/2000/svg">
<path d="M36.504 21.0946C36.8032 20.5671 36.9528 19.9534 36.9528 19.2585C36.9528 18.1552 36.5469 17.3183 35.7355 16.7454C35.2689 16.4105 34.4851 16.0938 33.3848 15.7942V22.7454C34.891 22.6774 35.9285 22.127 36.504 21.0946Z" fill="#A18F5F"/>
<path d="M32.1263 6.85986C30.9622 6.90534 30.1329 7.25556 29.6408 7.91731C29.146 8.57906 28.9004 9.26887 28.9004 9.99182C28.9004 10.8644 29.192 11.5465 29.773 12.0408C30.3561 12.533 31.1424 12.8777 32.1263 13.0707V6.85986Z" fill="#A18F5F"/>
<path d="M32.7443 30.3867C41.1359 30.3867 47.9353 23.5851 47.9353 15.1931C47.9353 6.80114 41.1359 0 32.7443 0C24.3528 0 17.5508 6.80156 17.5508 15.1935C17.5508 23.5851 24.3523 30.3867 32.7443 30.3867ZM27.8927 13.6665C26.9798 12.8219 26.5233 11.6476 26.5233 10.1516C26.5233 8.81232 27.013 7.60527 27.9969 6.52998C28.9808 5.45723 30.3553 4.90938 32.1281 4.89153V3.13451H33.3836V4.86646C35.1359 4.99056 36.4828 5.50568 37.4208 6.41607C38.3592 7.32646 38.8484 8.52841 38.8969 10.0224H36.5814C36.5232 9.35295 36.3404 8.7745 36.0412 8.2904C35.4857 7.40041 34.6008 6.93374 33.3861 6.88784V13.3269C35.43 13.9002 36.8173 14.4374 37.5504 14.9373C38.7396 15.7665 39.3334 16.9914 39.3334 18.612C39.3334 20.9576 38.57 22.6216 37.0485 23.6081C36.204 24.1534 34.9842 24.5133 33.3891 24.6935V27.2577H32.1336V24.6935C29.5694 24.5261 27.8298 23.6183 26.9118 21.97C26.4099 21.08 26.1587 19.8777 26.1587 18.3638H28.4967C28.5677 19.5708 28.7581 20.451 29.0675 21.0061C29.6179 22.0028 30.6396 22.5608 32.131 22.6849V15.4826C30.2159 15.1149 28.8031 14.5135 27.8927 13.6665Z" fill="#A18F5F"/>
<path d="M77.4579 61.9094C79.0479 60.251 79.195 57.1696 78.934 53.0537C77.0597 52.9296 74.3009 53.239 73.3267 53.0537C70.9556 48.342 67.552 44.6596 62.7009 42.4278C62.8658 39.3516 63.2814 36.5163 65.0618 35.0504C60.733 34.7537 57.0706 37.6804 54.7352 40.3635C45.9934 31.2796 20.0146 29.6641 7.51185 42.7245C5.35616 42.5621 5.60224 38.1849 8.39673 38.8874C3.83969 35.7835 1.32868 44.2915 5.74165 45.3796C2.06439 50.6264 1.71715 61.9017 6.62653 66.038C7.34439 72.2539 8.44221 78.0869 11.4654 81.9975H21.3861C21.1247 79.9837 20.8638 77.8306 21.0895 75.4849C27.115 76.8492 34.2693 77.25 41.4538 76.6643C42.5597 78.5081 43.635 80.3747 44.9534 82H54.773C54.4156 79.4031 54.025 76.6771 54.7326 74.0088C57.0787 73.5549 69.244 70.4684 77.4579 61.9094ZM63.9079 48.7347C65.2518 48.7347 66.3475 49.8278 66.3475 51.1743C66.3475 52.5207 65.2518 53.6164 63.9079 53.6164C62.5615 53.6164 61.4658 52.5207 61.4658 51.1743C61.4658 49.8278 62.5615 48.7347 63.9079 48.7347ZM43.6073 39.2729C36.8538 36.9447 29.4334 36.9676 22.713 39.3439L21.9472 37.7641C29.1546 35.2153 37.1127 35.1877 44.3579 37.688L43.6073 39.2729Z" fill="#A18F5F"/>
</svg>
