<svg width="1887" height="750" viewBox="0 0 1887 750" fill="none" xmlns="http://www.w3.org/2000/svg">
<path d="M1274.73 204.738L1173.51 259.452L1148.36 355.697L1249.58 300.983L1274.73 204.738Z" fill="black"/>
<path d="M1173.51 259.452L1072.28 314.166L1047.13 410.411L1148.36 355.697L1173.51 259.452Z" fill="#CBA400"/>
<path d="M1072.28 314.166L971.053 368.88L945.903 465.126L1047.13 410.412L1072.28 314.166Z" fill="black"/>
<path d="M971.055 368.88L869.829 423.594L844.679 519.84L945.905 465.126L971.055 368.88Z" fill="#CBA400"/>
<path d="M869.828 423.594L768.602 478.308L743.452 574.554L844.678 519.84L869.828 423.594Z" fill="black"/>
<path d="M768.602 478.308L667.375 533.022L642.226 629.268L743.452 574.554L768.602 478.308Z" fill="#CBA400"/>
<path d="M667.377 533.022L566.151 587.736L541.001 683.982L642.227 629.268L667.377 533.022Z" fill="black"/>
<path d="M566.15 587.736L464.924 642.45L439.774 738.696L541 683.982L566.15 587.736Z" fill="#CBA400"/>
<path d="M1882.09 -123.546L1780.86 -68.8321L1755.71 27.4133L1856.94 -27.3007L1882.09 -123.546Z" fill="black"/>
<path d="M1780.86 -68.8322L1679.64 -14.1181L1654.49 82.1273L1755.71 27.4133L1780.86 -68.8322Z" fill="#CBA400"/>
<path d="M1679.64 -14.1183L1578.41 40.5957L1553.26 136.841L1654.49 82.1272L1679.64 -14.1183Z" fill="black"/>
<path d="M1578.41 40.5958L1477.19 95.3098L1452.04 191.555L1553.26 136.841L1578.41 40.5958Z" fill="#CBA400"/>
<path d="M1477.19 95.3098L1375.96 150.024L1350.81 246.269L1452.04 191.555L1477.19 95.3098Z" fill="black"/>
<path d="M1375.96 150.024L1274.73 204.738L1249.58 300.983L1350.81 246.269L1375.96 150.024Z" fill="#CBA400"/>
<path d="M464.924 642.45L363.698 697.164L338.548 793.41L439.774 738.696L464.924 642.45Z" fill="black"/>
<path d="M363.697 697.164L262.471 751.878L237.321 848.124L338.547 793.41L363.697 697.164Z" fill="#CBA400"/>
</svg>
