<svg width="1920" height="696" viewBox="0 0 1920 696" fill="none" xmlns="http://www.w3.org/2000/svg">
<path d="M799.188 264.547L910.189 293.941L959.504 372.368L848.503 342.974L799.188 264.547Z" fill="black"/>
<path d="M910.188 293.942L1021.19 323.336L1070.5 401.762L959.503 372.368L910.188 293.942Z" fill="#CBA400"/>
<path d="M1021.19 323.336L1132.19 352.73L1181.51 431.156L1070.51 401.762L1021.19 323.336Z" fill="black"/>
<path d="M1132.19 352.73L1243.19 382.124L1292.51 460.551L1181.51 431.157L1132.19 352.73Z" fill="#CBA400"/>
<path d="M1243.19 382.124L1354.19 411.518L1403.51 489.945L1292.51 460.551L1243.19 382.124Z" fill="black"/>
<path d="M1354.2 411.518L1465.2 440.912L1514.51 519.339L1403.51 489.945L1354.2 411.518Z" fill="#CBA400"/>
<path d="M1465.2 440.912L1576.2 470.306L1625.51 548.733L1514.51 519.339L1465.2 440.912Z" fill="black"/>
<path d="M1576.2 470.306L1687.2 499.701L1736.51 578.127L1625.51 548.733L1576.2 470.306Z" fill="#CBA400"/>
<path d="M-88.8223 29.3944L22.1791 58.7885L71.4943 137.215L-39.507 107.821L-88.8223 29.3944Z" fill="black"/>
<path d="M22.1777 58.7885L133.179 88.1826L182.494 166.609L71.493 137.215L22.1777 58.7885Z" fill="#CBA400"/>
<path d="M133.18 88.1826L244.181 117.577L293.496 196.003L182.495 166.609L133.18 88.1826Z" fill="black"/>
<path d="M244.18 117.577L355.181 146.971L404.496 225.398L293.495 196.003L244.18 117.577Z" fill="#CBA400"/>
<path d="M355.182 146.971L466.183 176.365L515.498 254.792L404.497 225.397L355.182 146.971Z" fill="black"/>
<path d="M466.184 176.365L577.185 205.759L626.5 284.186L515.499 254.792L466.184 176.365Z" fill="#CBA400"/>
<path d="M577.184 205.759L688.185 235.153L737.5 313.58L626.499 284.186L577.184 205.759Z" fill="black"/>
<path d="M688.186 235.153L799.187 264.547L848.502 342.974L737.501 313.58L688.186 235.153Z" fill="#CBA400"/>
<path d="M1687.2 499.7L1798.2 529.095L1847.52 607.521L1736.51 578.127L1687.2 499.7Z" fill="black"/>
<path d="M1798.2 529.095L1909.2 558.489L1958.52 636.915L1847.51 607.521L1798.2 529.095Z" fill="#CBA400"/>
<path d="M1909.2 558.489L2020.2 587.883L2069.52 666.309L1958.52 636.915L1909.2 558.489Z" fill="black"/>
</svg>
