<svg width="211" height="211" viewBox="0 0 211 211" fill="none" xmlns="http://www.w3.org/2000/svg">
<g clip-path="url(#clip0)">
<path d="M105.5 61.8164C81.6428 61.8164 62.2285 81.2306 62.2285 105.088C62.2285 128.945 81.6428 148.359 105.5 148.359C129.357 148.359 148.772 128.945 148.772 105.088C148.772 81.2306 129.357 61.8164 105.5 61.8164ZM134.597 97.0953L103.689 128.004C102.482 129.211 100.899 129.815 99.3184 129.815C97.7376 129.815 96.1552 129.211 94.9478 128.004L76.4028 109.459C73.9881 107.044 73.9881 103.132 76.4028 100.717C78.8176 98.3026 82.7294 98.3026 85.1441 100.717L99.3184 114.892L125.856 88.354C128.271 85.9393 132.183 85.9393 134.597 88.354C137.012 90.7687 137.012 94.6806 134.597 97.0953Z" fill="#A18F5F"/>
<path d="M179.68 24.7266H165.198C144.298 24.7266 124.649 16.1769 109.871 1.39892C107.456 -1.01579 103.544 -1.01579 101.13 1.39892C86.3515 16.1769 66.7022 24.7266 45.8021 24.7266H31.3203C27.9027 24.7266 25.1387 27.4906 25.1387 30.9083V105.088C25.1387 160.638 65.5609 186.477 92.3094 203.301C94.7547 204.835 102.897 210.588 105.5 210.588C108.097 210.588 116.023 204.983 118.461 203.452C145.301 186.617 185.862 160.752 185.862 105.088V30.9083C185.862 27.4906 183.096 24.7266 179.68 24.7266ZM105.5 160.723C74.8205 160.723 49.8653 135.766 49.8653 105.088C49.8653 74.4084 74.8205 49.4532 105.5 49.4532C136.178 49.4532 161.135 74.4084 161.135 105.088C161.135 135.766 136.178 160.723 105.5 160.723Z" fill="#A18F5F"/>
</g>
<defs>
<clipPath id="clip0">
<rect width="211" height="211" fill="white"/>
</clipPath>
</defs>
</svg>
