<svg width="82" height="82" viewBox="0 0 82 82" fill="none" xmlns="http://www.w3.org/2000/svg">
<g clip-path="url(#clip0)">
<path d="M76.0063 78.8031C71.1021 73.0004 62.3145 68.576 51.6938 66.7699C50.6551 60.5503 48.8005 57.6445 48.752 57.5636C49.5607 57.1844 50.5365 57.055 51.6507 57.3012C53.0093 57.6067 53.9366 58.3273 54.499 59.2402C54.6626 59.5062 55.0795 59.4164 55.128 59.1073C55.1981 58.6544 55.1765 58.1602 55.022 57.6121C54.6338 56.2481 53.5718 55.1142 52.188 54.8159C51.2841 54.6236 50.3856 54.7727 49.6272 55.1753C50.3298 54.5679 51.205 54.0719 52.2707 53.7251C54.5709 52.9883 56.5764 53.3477 58.1363 54.3433C58.4005 54.5104 58.7239 54.2678 58.6395 53.9659C58.3789 53.0296 57.8631 52.1113 56.9071 51.2685C55.2969 49.8524 53.056 49.2378 51.0199 49.9117C50.364 50.1291 49.7674 50.4526 49.248 50.8534C49.2858 50.8048 49.3271 50.7545 49.3648 50.7078C50.8654 48.9449 52.6678 48.1829 54.4451 48.1398C54.8315 48.1308 55.004 47.6294 54.7075 47.3796C54.0767 46.8549 53.3004 46.4416 52.2922 46.2259C50.0243 45.7425 47.6378 46.4218 46.1966 48.2368C45.6791 48.8856 45.3196 49.617 45.1112 50.3717C44.5002 49.8776 43.7849 49.4948 42.9835 49.2683C40.7551 48.6358 38.4207 49.4768 36.8609 51.1894C36.187 51.928 35.797 52.6989 35.5903 53.4699C35.4825 53.867 35.939 54.1887 36.2822 53.9623C37.7432 52.9847 39.6319 52.5678 41.8549 53.1177C41.916 53.1356 41.9753 53.1518 42.0364 53.1662C41.3805 53.141 40.7084 53.2273 40.0453 53.4339C37.9984 54.0719 36.5356 55.8761 36.0522 57.9661C35.7754 59.1702 35.8761 60.1927 36.1888 61.084C36.302 61.4075 36.7476 61.4147 36.8806 61.0984C37.5833 59.4128 38.9904 57.9877 41.2547 57.2599C42.3203 56.9166 43.3213 56.8106 44.245 56.8933C43.3914 57.0065 42.5755 57.4108 41.9555 58.0955C41.0031 59.145 40.8036 60.6815 41.2834 62.0185C41.4757 62.5576 41.7525 62.9745 42.0759 63.3034C42.2916 63.5244 42.6798 63.3555 42.6564 63.0482C42.5755 61.9754 42.9116 60.8612 43.8371 59.8189C44.5505 59.0192 45.3628 58.5052 46.1858 58.3902C46.184 58.3902 47.4887 61.5944 47.6702 66.2182C45.4975 65.9954 43.2656 65.8714 40.9869 65.8714C35.407 65.8714 30.1003 66.5669 25.2986 67.8266C26.2941 46.1307 39.6463 31.7578 39.6625 31.6859V31.6841C41.3068 32.7713 42.6959 34.4372 43.5945 36.7752C44.7643 39.8122 44.5631 42.5635 43.5046 44.835C43.2009 45.4855 43.9125 46.1738 44.5667 45.8701C45.5443 45.4172 46.4877 44.7326 47.3539 43.7172C49.4978 41.1995 50.3298 37.6737 49.1132 34.6007C48.3189 32.5952 46.8651 31.0443 45.1022 30.0901C47.1868 30.6687 49.2876 31.7236 51.3344 33.3464C55.6797 36.7985 57.5792 41.0755 57.7284 45.3256C57.7571 46.1235 58.7365 46.4811 59.2487 45.8665C60.663 44.1773 61.7286 42.0244 62.1114 39.1653C62.7763 34.2036 61.0691 29.0622 57.1245 25.9802C55.8486 24.981 54.4523 24.2424 52.9967 23.7536C53.1423 23.768 53.286 23.7842 53.4334 23.7986C58.7383 24.4186 62.5229 26.8805 64.9094 30.2177C65.4665 30.9958 66.7298 30.6634 66.8197 29.7127C67.0048 27.8581 66.782 25.8562 65.9194 23.6854C63.9246 18.6608 59.5182 14.9085 54.1288 14.452C52.1952 14.2885 50.3137 14.5329 48.5741 15.1098C48.7448 13.284 48.5543 11.4024 47.9595 9.55864C46.3008 4.41185 41.6518 0.966882 36.3074 0.152813C33.937 -0.2066 31.8902 0.0521772 30.0895 0.684743C29.2377 0.983056 29.1982 2.22123 30.0338 2.55908C33.8831 4.11174 37.1915 7.25301 39.0173 12.3423C39.0677 12.4807 39.1144 12.619 39.1593 12.7556C38.3542 11.4492 37.3191 10.2541 36.0576 9.23876C32.1633 6.09211 26.7686 5.59073 22.0872 7.35724C19.3054 8.40672 17.422 9.99533 16.0868 11.8211C15.6555 12.4106 16.1623 13.2067 16.8757 13.0575C21.106 12.1752 25.7748 13.0288 30.1884 16.5402C32.2334 18.1648 33.7376 19.9708 34.7727 21.8739C33.4464 20.368 31.6045 19.3041 29.4713 18.986C26.2025 18.4954 22.9552 20.1002 20.9874 22.7617C20.1985 23.8255 19.7492 24.8912 19.5264 25.9389C19.3754 26.6505 20.2147 27.1932 20.7897 26.7458C22.7629 25.2111 25.3884 24.4006 28.6034 24.8534C31.2432 25.2254 33.2685 26.3091 34.7206 27.8024C34.4618 28.0235 18.3529 40.044 7.79876 76.8479C7.15541 77.4589 6.55699 78.095 6.00709 78.7456C4.92526 80.0269 5.83996 82.0001 7.51303 82.0001H74.4824C76.1303 82.009 77.0719 80.0646 76.0063 78.8031Z" fill="#A18F5F"/>
</g>
<defs>
<clipPath id="clip0">
<rect width="82" height="82" fill="white"/>
</clipPath>
</defs>
</svg>
