<svg width="14" height="11" viewBox="0 0 14 11" fill="none" xmlns="http://www.w3.org/2000/svg">
<path d="M12.7488 10.9997C13.0635 10.9997 13.3362 10.8958 13.568 10.6906L9.6016 6.7247C9.50643 6.79283 9.41419 6.85909 9.32706 6.92209C9.03023 7.14075 8.78932 7.31138 8.60433 7.43364C8.41937 7.55619 8.17327 7.6811 7.86608 7.80862C7.55867 7.9363 7.27229 7.99994 7.00663 7.99994H6.99885H6.99107C6.72538 7.99994 6.439 7.93633 6.13162 7.80862C5.82424 7.6811 5.57815 7.55619 5.39336 7.43364C5.2084 7.31138 4.96762 7.14077 4.67064 6.92209C4.58788 6.86143 4.49609 6.79487 4.39686 6.72363L0.429688 10.6906C0.661472 10.8958 0.934331 10.9997 1.249 10.9997H12.7488Z" fill="#F2F2F2"/>
<path d="M0.789146 4.22678C0.492342 4.02886 0.229141 3.80219 0 3.54688V9.58284L3.49599 6.08619C2.79659 5.59782 1.89545 4.97873 0.789146 4.22678Z" fill="#F2F2F2"/>
<path d="M13.2192 4.22664C12.1551 4.94687 11.2507 5.56691 10.5059 6.08708L14.0004 9.58179V3.54688C13.7764 3.79701 13.516 4.02348 13.2192 4.22664Z" fill="#F2F2F2"/>
<path d="M12.7497 0H1.24992C0.848723 0 0.540279 0.135472 0.324203 0.406138C0.107949 0.67693 0 1.01559 0 1.42172C0 1.74978 0.143254 2.10524 0.429636 2.48819C0.716017 2.871 1.02075 3.17168 1.34368 3.39039C1.52072 3.51547 2.05459 3.88661 2.9453 4.50368C3.42613 4.83687 3.84428 5.12729 4.20361 5.3779C4.50989 5.5913 4.77403 5.77611 4.99212 5.92947C5.01715 5.94704 5.05653 5.9752 5.10878 6.01256C5.16508 6.053 5.23633 6.10432 5.32423 6.16778C5.49348 6.29019 5.63409 6.38914 5.74608 6.46473C5.85792 6.54034 5.99342 6.6248 6.15239 6.71859C6.31122 6.81226 6.46103 6.88269 6.60164 6.92953C6.74228 6.97635 6.87247 6.99983 6.99224 6.99983H7.00002H7.00779C7.12754 6.99983 7.25775 6.97635 7.39841 6.92953C7.539 6.88269 7.68868 6.81241 7.84765 6.71859C8.00646 6.6248 8.14178 6.54017 8.25397 6.46473C8.36596 6.38914 8.50657 6.29022 8.67586 6.16778C8.76357 6.10432 8.83482 6.05297 8.89112 6.01269C8.9434 5.97517 8.98275 5.94719 9.00794 5.92947C9.17783 5.81126 9.44258 5.62721 9.79853 5.38006C10.4462 4.93005 11.4001 4.26771 12.6642 3.39039C13.0443 3.12486 13.362 2.80443 13.6172 2.42956C13.8721 2.05468 13.9998 1.66146 13.9998 1.25001C13.9998 0.906242 13.8759 0.612091 13.6288 0.367097C13.3813 0.122408 13.0882 0 12.7497 0Z" fill="#F2F2F2"/>
</svg>
