<svg width="182" height="182" viewBox="0 0 182 182" fill="none" xmlns="http://www.w3.org/2000/svg">
<g opacity="0.3">
<path d="M87.8469 157.354H87.0293C86.5579 157.354 86.1058 157.542 85.7725 157.875C85.4392 158.208 85.252 158.66 85.252 159.132C85.252 159.603 85.4392 160.055 85.7725 160.389C86.1058 160.722 86.5579 160.909 87.0293 160.909H87.8469C88.3183 160.909 88.7703 160.722 89.1037 160.389C89.437 160.055 89.6242 159.603 89.6242 159.132C89.6242 158.66 89.437 158.208 89.1037 157.875C88.7703 157.542 88.3183 157.354 87.8469 157.354Z" fill="white"/>
<path d="M77.3131 118.623C77.1172 118.495 76.8981 118.408 76.6683 118.366C76.4386 118.323 76.2027 118.327 75.9743 118.376C75.7459 118.425 75.5294 118.519 75.3373 118.651C75.1452 118.784 74.9811 118.954 74.8547 119.15C72.8166 122.309 72 126.103 72.5578 129.821C73.1156 133.539 75.0096 136.926 77.8851 139.348C80.7605 141.77 84.4202 143.061 88.1789 142.979C91.9375 142.897 95.5374 141.447 98.3042 138.902C101.071 136.356 102.815 132.89 103.21 129.151C103.605 125.412 102.623 121.658 100.449 118.591C98.2748 115.524 95.0572 113.354 91.3986 112.489C87.74 111.623 83.8914 112.121 80.5735 113.889C80.3565 113.993 80.1627 114.139 80.0039 114.319C79.8451 114.5 79.7245 114.711 79.6495 114.939C79.5745 115.167 79.5466 115.409 79.5674 115.648C79.5883 115.887 79.6575 116.12 79.7709 116.332C79.8843 116.544 80.0395 116.731 80.2271 116.881C80.4147 117.031 80.6308 117.142 80.8624 117.206C81.094 117.271 81.3363 117.287 81.5745 117.255C81.8127 117.223 82.042 117.143 82.2484 117.02C84.8058 115.658 87.7721 115.275 90.5918 115.942C93.4115 116.609 95.8912 118.282 97.5666 120.646C99.2421 123.01 99.9982 125.904 99.6935 128.785C99.3889 131.667 98.0442 134.338 95.9114 136.3C93.7787 138.261 91.004 139.378 88.1071 139.441C85.2102 139.504 82.3897 138.509 80.1737 136.642C77.9578 134.775 76.4985 132.164 76.069 129.298C75.6396 126.433 76.2694 123.509 77.8406 121.074C78.0946 120.679 78.1816 120.199 78.0828 119.739C77.9839 119.28 77.7072 118.879 77.3131 118.623Z" fill="white"/>
<path d="M105.691 49.0547C106.163 49.0547 106.615 48.8674 106.948 48.5341C107.281 48.2008 107.469 47.7487 107.469 47.2773V46.5664C107.469 46.095 107.281 45.6429 106.948 45.3096C106.615 44.9763 106.163 44.7891 105.691 44.7891C105.22 44.7891 104.768 44.9763 104.435 45.3096C104.101 45.6429 103.914 46.095 103.914 46.5664V47.2773C103.914 47.7487 104.101 48.2008 104.435 48.5341C104.768 48.8674 105.22 49.0547 105.691 49.0547Z" fill="white"/>
<path d="M105.691 90.6205C106.163 90.6205 106.615 90.4333 106.948 90.0999C107.281 89.7666 107.469 89.3145 107.469 88.8432V53.7939C107.469 53.3226 107.281 52.8705 106.948 52.5372C106.615 52.2039 106.163 52.0166 105.691 52.0166C105.22 52.0166 104.768 52.2039 104.435 52.5372C104.101 52.8705 103.914 53.3226 103.914 53.7939V88.8432C103.914 89.3145 104.101 89.7666 104.435 90.0999C104.768 90.4333 105.22 90.6205 105.691 90.6205Z" fill="white"/>
<path d="M94.364 127.542C94.3637 126.253 93.9814 124.994 93.2655 123.923C92.5495 122.852 91.532 122.017 90.3415 121.524C89.1511 121.031 87.8413 120.902 86.5776 121.154C85.314 121.405 84.1532 122.025 83.2422 122.937C82.3311 123.848 81.7107 125.008 81.4592 126.272C81.2078 127.536 81.3367 128.845 81.8296 130.036C82.3226 131.226 83.1574 132.244 84.2286 132.96C85.2997 133.676 86.5592 134.058 87.8476 134.058C89.5753 134.056 91.2317 133.369 92.4533 132.148C93.675 130.926 94.3621 129.27 94.364 127.542ZM84.8872 127.542C84.8872 126.956 85.061 126.383 85.3865 125.896C85.712 125.409 86.1746 125.03 86.7159 124.805C87.2572 124.581 87.8528 124.523 88.4273 124.637C89.0019 124.752 89.5296 125.034 89.9438 125.448C90.3579 125.862 90.6399 126.39 90.754 126.965C90.8682 127.54 90.8093 128.135 90.5849 128.676C90.3605 129.218 89.9807 129.68 89.4934 130.005C89.0062 130.331 88.4334 130.504 87.8476 130.504C87.0622 130.503 86.3091 130.191 85.7537 129.636C85.1984 129.08 84.8862 128.327 84.8858 127.542H84.8872Z" fill="white"/>
<path d="M124.77 21.0908H105.693C105.221 21.0908 104.769 21.2781 104.436 21.6114C104.103 21.9447 103.915 22.3968 103.915 22.8682V40.9971C103.915 41.4685 104.103 41.9205 104.436 42.2538C104.769 42.5872 105.221 42.7744 105.693 42.7744C106.164 42.7744 106.616 42.5872 106.949 42.2538C107.283 41.9205 107.47 41.4685 107.47 40.9971V24.6455H117.661V28.0822H113.988C113.517 28.0822 113.064 28.2694 112.731 28.6028C112.398 28.9361 112.211 29.3881 112.211 29.8595C112.211 30.3309 112.398 30.783 112.731 31.1163C113.064 31.4496 113.517 31.6369 113.988 31.6369H117.661V37.7979H113.988C113.517 37.7979 113.064 37.9851 112.731 38.3184C112.398 38.6517 112.211 39.1038 112.211 39.5752C112.211 40.0466 112.398 40.4987 112.731 40.832C113.064 41.1653 113.517 41.3525 113.988 41.3525H117.661V47.5149H113.988C113.517 47.5149 113.064 47.7022 112.731 48.0355C112.398 48.3688 112.211 48.8209 112.211 49.2923C112.211 49.7637 112.398 50.2157 112.731 50.5491C113.064 50.8824 113.517 51.0696 113.988 51.0696H117.661V57.2306H113.988C113.517 57.2306 113.064 57.4179 112.731 57.7512C112.398 58.0845 112.211 58.5366 112.211 59.008C112.211 59.4793 112.398 59.9314 112.731 60.2647C113.064 60.5981 113.517 60.7853 113.988 60.7853H117.661V66.9463H113.988C113.517 66.9463 113.064 67.1335 112.731 67.4669C112.398 67.8002 112.211 68.2523 112.211 68.7236C112.211 69.195 112.398 69.6471 112.731 69.9804C113.064 70.3137 113.517 70.501 113.988 70.501H117.661V76.6634H113.988C113.517 76.6634 113.064 76.8506 112.731 77.184C112.398 77.5173 112.211 77.9693 112.211 78.4407C112.211 78.9121 112.398 79.3642 112.731 79.6975C113.064 80.0308 113.517 80.2181 113.988 80.2181H117.661V86.3791H113.988C113.517 86.3791 113.064 86.5663 112.731 86.8996C112.398 87.2329 112.211 87.685 112.211 88.1564C112.211 88.6278 112.398 89.0799 112.731 89.4132C113.064 89.7465 113.517 89.9337 113.988 89.9337H117.661V94.1752H80.7487L89.0326 87.4455V89.8342C89.0326 90.3056 89.2198 90.7577 89.5531 91.091C89.8865 91.4243 90.3385 91.6116 90.8099 91.6116C91.2813 91.6116 91.7334 91.4243 92.0667 91.091C92.4 90.7577 92.5872 90.3056 92.5872 89.8342V83.7202C92.5874 83.3842 92.4924 83.055 92.3131 82.7709C92.1338 82.4867 91.8777 82.2592 91.5744 82.1147C91.2711 81.9702 90.933 81.9146 90.5994 81.9544C90.2658 81.9942 89.9503 82.1277 89.6895 82.3395L75.0669 94.2093C69.5532 94.3867 64.3241 96.6995 60.4834 100.66C56.6427 104.62 54.491 109.917 54.4824 115.434V159.132C54.4824 159.604 54.6697 160.056 55.003 160.389C55.3363 160.722 55.7884 160.909 56.2598 160.909H80.6321C81.1035 160.909 81.5556 160.722 81.8889 160.389C82.2222 160.056 82.4095 159.604 82.4095 159.132C82.4095 158.661 82.2222 158.209 81.8889 157.875C81.5556 157.542 81.1035 157.355 80.6321 157.355H58.0371V115.434C58.0424 110.74 59.9091 106.241 63.2278 102.922C66.5465 99.6033 71.0461 97.7366 75.7395 97.7313H89.0326V105.227C83.14 105.391 77.5168 107.732 73.2489 111.798C68.981 115.864 66.371 121.367 65.9228 127.245H63.3635C62.8921 127.245 62.44 127.432 62.1067 127.766C61.7734 128.099 61.5861 128.551 61.5861 129.023C61.5861 129.494 61.7734 129.946 62.1067 130.279C62.44 130.613 62.8921 130.8 63.3635 130.8H67.6291C68.1005 130.8 68.5525 130.613 68.8858 130.279C69.2192 129.946 69.4064 129.494 69.4064 129.023C69.4124 123.653 71.5487 118.505 75.3464 114.709C79.144 110.912 84.2927 108.778 89.6625 108.774H90.8113C91.2827 108.774 91.7348 108.586 92.0681 108.253C92.4014 107.92 92.5887 107.468 92.5887 106.996V97.7299H117.661V139.652C117.655 144.346 115.789 148.845 112.47 152.164C109.151 155.483 104.652 157.35 99.9583 157.355H95.4438C94.9724 157.355 94.5203 157.542 94.187 157.875C93.8537 158.209 93.6665 158.661 93.6665 159.132C93.6665 159.604 93.8537 160.056 94.187 160.389C94.5203 160.722 94.9724 160.909 95.4438 160.909H99.9583C105.594 160.903 110.997 158.661 114.982 154.676C118.967 150.691 121.209 145.288 121.215 139.652V24.6455H124.77C125.241 24.6455 125.693 24.4583 126.027 24.1249C126.36 23.7916 126.547 23.3395 126.547 22.8682C126.547 22.3968 126.36 21.9447 126.027 21.6114C125.693 21.2781 125.241 21.0908 124.77 21.0908Z" fill="white"/>
</g>
</svg>
