<svg width="27" height="28" viewBox="0 0 27 28" fill="none" xmlns="http://www.w3.org/2000/svg">
<mask id="path-1-outside-1" maskUnits="userSpaceOnUse" x="0" y="0" width="27" height="28" fill="black">
<rect fill="white" width="27" height="28"/>
<path d="M25.344 21.0581L20.2839 17.5484C19.6418 17.1066 18.781 17.2519 18.3063 17.8825L16.8323 19.8535C16.6429 20.1133 16.2986 20.1887 16.0245 20.0303L15.7441 19.8696C14.8147 19.3427 13.6582 18.6867 11.3281 16.2624C8.99807 13.838 8.36608 12.6343 7.85947 11.6694L7.70573 11.3778C7.55141 11.0928 7.62249 10.7332 7.87236 10.5346L9.76622 9.002C10.3722 8.50819 10.5122 7.61319 10.0878 6.94511L6.71335 1.68225C6.2785 1.00193 5.40607 0.797706 4.73288 1.2186L2.61693 2.54059C1.95209 2.94711 1.46432 3.60549 1.2559 4.37776C0.493956 7.26527 1.06716 12.2487 8.1253 19.5905C13.7399 25.4296 17.9197 26.9999 20.7926 26.9999C21.4538 27.0029 22.1124 26.9134 22.7507 26.7339C23.4933 26.5174 24.1264 26.01 24.5171 25.3183L25.7894 23.1189C26.1946 22.4186 25.9984 21.5106 25.344 21.0581ZM25.0715 22.6743L23.8021 24.875C23.5217 25.3743 23.0663 25.7414 22.5315 25.8994C19.9685 26.6312 15.4909 26.0251 8.71476 18.9774C1.93866 11.9298 1.35589 7.27309 2.05954 4.60702C2.21167 4.0501 2.56504 3.57589 3.04563 3.28371L5.16158 1.96345C5.45367 1.78065 5.83233 1.86926 6.02102 2.16448L7.8541 5.02685L9.39264 7.42689C9.57689 7.71668 9.51635 8.10507 9.2535 8.31951L7.3592 9.85207C6.78272 10.3105 6.6181 11.1401 6.97303 11.7985L7.12344 12.0827C7.65588 13.0984 8.31785 14.3619 10.7346 16.875C13.1513 19.3882 14.3657 20.0767 15.3418 20.6304L15.6155 20.7873C16.2485 21.1564 17.0461 20.9852 17.4869 20.3856L18.9604 18.4154C19.1666 18.1422 19.5399 18.0793 19.8186 18.2707L24.8783 21.7804C25.1623 21.9765 25.2475 22.3706 25.0715 22.6743Z"/>
</mask>
<path d="M25.344 21.0581L20.2839 17.5484C19.6418 17.1066 18.781 17.2519 18.3063 17.8825L16.8323 19.8535C16.6429 20.1133 16.2986 20.1887 16.0245 20.0303L15.7441 19.8696C14.8147 19.3427 13.6582 18.6867 11.3281 16.2624C8.99807 13.838 8.36608 12.6343 7.85947 11.6694L7.70573 11.3778C7.55141 11.0928 7.62249 10.7332 7.87236 10.5346L9.76622 9.002C10.3722 8.50819 10.5122 7.61319 10.0878 6.94511L6.71335 1.68225C6.2785 1.00193 5.40607 0.797706 4.73288 1.2186L2.61693 2.54059C1.95209 2.94711 1.46432 3.60549 1.2559 4.37776C0.493956 7.26527 1.06716 12.2487 8.1253 19.5905C13.7399 25.4296 17.9197 26.9999 20.7926 26.9999C21.4538 27.0029 22.1124 26.9134 22.7507 26.7339C23.4933 26.5174 24.1264 26.01 24.5171 25.3183L25.7894 23.1189C26.1946 22.4186 25.9984 21.5106 25.344 21.0581ZM25.0715 22.6743L23.8021 24.875C23.5217 25.3743 23.0663 25.7414 22.5315 25.8994C19.9685 26.6312 15.4909 26.0251 8.71476 18.9774C1.93866 11.9298 1.35589 7.27309 2.05954 4.60702C2.21167 4.0501 2.56504 3.57589 3.04563 3.28371L5.16158 1.96345C5.45367 1.78065 5.83233 1.86926 6.02102 2.16448L7.8541 5.02685L9.39264 7.42689C9.57689 7.71668 9.51635 8.10507 9.2535 8.31951L7.3592 9.85207C6.78272 10.3105 6.6181 11.1401 6.97303 11.7985L7.12344 12.0827C7.65588 13.0984 8.31785 14.3619 10.7346 16.875C13.1513 19.3882 14.3657 20.0767 15.3418 20.6304L15.6155 20.7873C16.2485 21.1564 17.0461 20.9852 17.4869 20.3856L18.9604 18.4154C19.1666 18.1422 19.5399 18.0793 19.8186 18.2707L24.8783 21.7804C25.1623 21.9765 25.2475 22.3706 25.0715 22.6743Z" fill="black"/>
<path d="M25.344 21.0581L20.2839 17.5484C19.6418 17.1066 18.781 17.2519 18.3063 17.8825L16.8323 19.8535C16.6429 20.1133 16.2986 20.1887 16.0245 20.0303L15.7441 19.8696C14.8147 19.3427 13.6582 18.6867 11.3281 16.2624C8.99807 13.838 8.36608 12.6343 7.85947 11.6694L7.70573 11.3778C7.55141 11.0928 7.62249 10.7332 7.87236 10.5346L9.76622 9.002C10.3722 8.50819 10.5122 7.61319 10.0878 6.94511L6.71335 1.68225C6.2785 1.00193 5.40607 0.797706 4.73288 1.2186L2.61693 2.54059C1.95209 2.94711 1.46432 3.60549 1.2559 4.37776C0.493956 7.26527 1.06716 12.2487 8.1253 19.5905C13.7399 25.4296 17.9197 26.9999 20.7926 26.9999C21.4538 27.0029 22.1124 26.9134 22.7507 26.7339C23.4933 26.5174 24.1264 26.01 24.5171 25.3183L25.7894 23.1189C26.1946 22.4186 25.9984 21.5106 25.344 21.0581ZM25.0715 22.6743L23.8021 24.875C23.5217 25.3743 23.0663 25.7414 22.5315 25.8994C19.9685 26.6312 15.4909 26.0251 8.71476 18.9774C1.93866 11.9298 1.35589 7.27309 2.05954 4.60702C2.21167 4.0501 2.56504 3.57589 3.04563 3.28371L5.16158 1.96345C5.45367 1.78065 5.83233 1.86926 6.02102 2.16448L7.8541 5.02685L9.39264 7.42689C9.57689 7.71668 9.51635 8.10507 9.2535 8.31951L7.3592 9.85207C6.78272 10.3105 6.6181 11.1401 6.97303 11.7985L7.12344 12.0827C7.65588 13.0984 8.31785 14.3619 10.7346 16.875C13.1513 19.3882 14.3657 20.0767 15.3418 20.6304L15.6155 20.7873C16.2485 21.1564 17.0461 20.9852 17.4869 20.3856L18.9604 18.4154C19.1666 18.1422 19.5399 18.0793 19.8186 18.2707L24.8783 21.7804C25.1623 21.9765 25.2475 22.3706 25.0715 22.6743Z" stroke="black" mask="url(#path-1-outside-1)"/>
<mask id="path-2-outside-2" maskUnits="userSpaceOnUse" x="13.75" y="3.46826" width="10" height="11" fill="black">
<rect fill="white" x="13.75" y="3.46826" width="10" height="11"/>
<path d="M15.1666 5.33483C19.0763 5.33935 22.2446 8.63464 22.249 12.7009C22.249 12.9403 22.4355 13.1342 22.6656 13.1342C22.8957 13.1342 23.0822 12.9403 23.0822 12.7009C23.0773 8.15622 19.5363 4.47324 15.1666 4.46826C14.9365 4.46826 14.75 4.66223 14.75 4.90154C14.75 5.14086 14.9365 5.33483 15.1666 5.33483Z"/>
</mask>
<path d="M15.1666 5.33483C19.0763 5.33935 22.2446 8.63464 22.249 12.7009C22.249 12.9403 22.4355 13.1342 22.6656 13.1342C22.8957 13.1342 23.0822 12.9403 23.0822 12.7009C23.0773 8.15622 19.5363 4.47324 15.1666 4.46826C14.9365 4.46826 14.75 4.66223 14.75 4.90154C14.75 5.14086 14.9365 5.33483 15.1666 5.33483Z" fill="black"/>
<path d="M15.1666 5.33483C19.0763 5.33935 22.2446 8.63464 22.249 12.7009C22.249 12.9403 22.4355 13.1342 22.6656 13.1342C22.8957 13.1342 23.0822 12.9403 23.0822 12.7009C23.0773 8.15622 19.5363 4.47324 15.1666 4.46826C14.9365 4.46826 14.75 4.66223 14.75 4.90154C14.75 5.14086 14.9365 5.33483 15.1666 5.33483Z" stroke="black" mask="url(#path-2-outside-2)"/>
<mask id="path-3-outside-3" maskUnits="userSpaceOnUse" x="13.75" y="6.06836" width="8" height="8" fill="black">
<rect fill="white" x="13.75" y="6.06836" width="8" height="8"/>
<path d="M15.1666 7.93493C17.6963 7.93802 19.7464 10.0702 19.7493 12.7012C19.7493 12.9406 19.9359 13.1345 20.1659 13.1345C20.396 13.1345 20.5825 12.9406 20.5825 12.7012C20.5791 9.59174 18.1563 7.07191 15.1666 7.06836C14.9365 7.06836 14.75 7.26233 14.75 7.50164C14.75 7.74096 14.9365 7.93493 15.1666 7.93493Z"/>
</mask>
<path d="M15.1666 7.93493C17.6963 7.93802 19.7464 10.0702 19.7493 12.7012C19.7493 12.9406 19.9359 13.1345 20.1659 13.1345C20.396 13.1345 20.5825 12.9406 20.5825 12.7012C20.5791 9.59174 18.1563 7.07191 15.1666 7.06836C14.9365 7.06836 14.75 7.26233 14.75 7.50164C14.75 7.74096 14.9365 7.93493 15.1666 7.93493Z" fill="black"/>
<path d="M15.1666 7.93493C17.6963 7.93802 19.7464 10.0702 19.7493 12.7012C19.7493 12.9406 19.9359 13.1345 20.1659 13.1345C20.396 13.1345 20.5825 12.9406 20.5825 12.7012C20.5791 9.59174 18.1563 7.07191 15.1666 7.06836C14.9365 7.06836 14.75 7.26233 14.75 7.50164C14.75 7.74096 14.9365 7.93493 15.1666 7.93493Z" stroke="black" mask="url(#path-3-outside-3)"/>
<mask id="path-4-outside-4" maskUnits="userSpaceOnUse" x="13.75" y="8.66797" width="5" height="5" fill="black">
<rect fill="white" x="13.75" y="8.66797" width="5" height="5"/>
<path d="M15.1666 10.5345C16.3165 10.536 17.2483 11.5051 17.2497 12.7011C17.2497 12.9404 17.4362 13.1343 17.6663 13.1343C17.8963 13.1343 18.0829 12.9404 18.0829 12.7011C18.081 11.0267 16.7765 9.66985 15.1666 9.66797C14.9365 9.66797 14.75 9.86194 14.75 10.1013C14.75 10.3406 14.9365 10.5345 15.1666 10.5345Z"/>
</mask>
<path d="M15.1666 10.5345C16.3165 10.536 17.2483 11.5051 17.2497 12.7011C17.2497 12.9404 17.4362 13.1343 17.6663 13.1343C17.8963 13.1343 18.0829 12.9404 18.0829 12.7011C18.081 11.0267 16.7765 9.66985 15.1666 9.66797C14.9365 9.66797 14.75 9.86194 14.75 10.1013C14.75 10.3406 14.9365 10.5345 15.1666 10.5345Z" fill="black"/>
<path d="M15.1666 10.5345C16.3165 10.536 17.2483 11.5051 17.2497 12.7011C17.2497 12.9404 17.4362 13.1343 17.6663 13.1343C17.8963 13.1343 18.0829 12.9404 18.0829 12.7011C18.081 11.0267 16.7765 9.66985 15.1666 9.66797C14.9365 9.66797 14.75 9.86194 14.75 10.1013C14.75 10.3406 14.9365 10.5345 15.1666 10.5345Z" stroke="black" mask="url(#path-4-outside-4)"/>
</svg>
