<svg width="82" height="82" viewBox="0 0 82 82" fill="none" xmlns="http://www.w3.org/2000/svg">
<path d="M33.793 43.4023H48.207V48.207H33.793V43.4023Z" fill="#A18F5F"/>
<path d="M66.5255 48.207H53.0117V50.6094C53.0117 51.9369 51.9369 53.0117 50.6094 53.0117H31.3906C30.0631 53.0117 28.9883 51.9369 28.9883 50.6094V48.207H15.4745C12.3683 48.207 9.62126 46.227 8.6378 43.2803L0 17.3625V69.8281C0 73.802 3.23315 77.0351 7.20703 77.0351H74.793C78.7668 77.0351 82 73.802 82 69.8281V17.3644L73.3616 43.2803C72.3787 46.227 69.6317 48.207 66.5255 48.207Z" fill="#A18F5F"/>
<path d="M50.6088 4.96484H31.39C27.4162 4.96484 24.183 8.198 24.183 12.1719V14.5742H4.13281L13.1935 41.7601C13.522 42.743 14.4391 43.4023 15.4739 43.4023H28.9877V41C28.9877 39.6725 30.0625 38.5977 31.39 38.5977H50.6088C51.9363 38.5977 53.0111 39.6725 53.0111 41V43.4023H66.5249C67.5597 43.4023 68.4768 42.743 68.8053 41.7601L77.8666 14.5742H57.8158V12.1719C57.8158 8.198 54.5827 4.96484 50.6088 4.96484ZM28.9877 14.5742V12.1719C28.9877 10.8462 30.0644 9.76953 31.39 9.76953H50.6088C51.9344 9.76953 53.0111 10.8462 53.0111 12.1719V14.5742H28.9877Z" fill="#A18F5F"/>
</svg>
