<svg width="82" height="82" viewBox="0 0 82 82" fill="none" xmlns="http://www.w3.org/2000/svg">
<g clip-path="url(#clip0)">
<path d="M41 24.0234C31.7285 24.0234 24.1836 31.5683 24.1836 40.8399C24.1836 50.1114 31.7285 57.6563 41 57.6563C50.2716 57.6563 57.8165 50.1114 57.8165 40.8399C57.8165 31.5683 50.2716 24.0234 41 24.0234ZM52.308 37.7337L40.2962 49.7454C39.827 50.2146 39.212 50.4493 38.5977 50.4493C37.9833 50.4493 37.3684 50.2146 36.8991 49.7454L29.6921 42.5384C28.7537 41.6 28.7537 40.0797 29.6921 39.1413C30.6305 38.2029 32.1508 38.2029 33.0892 39.1413L38.5977 44.6498L48.9109 34.3366C49.8493 33.3982 51.3695 33.3982 52.308 34.3366C53.2464 35.2751 53.2464 36.7953 52.308 37.7337Z" fill="#A18F5F"/>
<path d="M69.8282 9.60939H64.2002C56.0779 9.60939 48.4417 6.28677 42.6986 0.543656C41.7602 -0.39476 40.2399 -0.39476 39.3015 0.543656C33.5584 6.28677 25.9222 9.60939 17.7999 9.60939H12.1719C10.8437 9.60939 9.76953 10.6836 9.76953 12.0117V40.8399C9.76953 62.4279 25.4786 72.4696 35.8738 79.0078C36.8241 79.604 39.9884 81.84 41 81.84C42.0092 81.84 45.0897 79.6616 46.0368 79.0666C56.4677 72.524 72.2306 62.4723 72.2306 40.8399V12.0117C72.2306 10.6836 71.1558 9.60939 69.8282 9.60939ZM41 62.461C29.0771 62.461 19.3789 52.7622 19.3789 40.8399C19.3789 28.917 29.0771 19.2188 41 19.2188C52.9223 19.2188 62.6212 28.917 62.6212 40.8399C62.6212 52.7622 52.9223 62.461 41 62.461Z" fill="#A18F5F"/>
</g>
<defs>
<clipPath id="clip0">
<rect width="82" height="82" fill="white"/>
</clipPath>
</defs>
</svg>
