<svg width="30" height="30" viewBox="0 0 30 30" fill="none" xmlns="http://www.w3.org/2000/svg">
<g clip-path="url(#clip0)">
<path d="M14.2724 0.0173493C6.34946 0.394596 0.0971275 6.9929 0.121163 14.9248C0.128481 17.3407 0.711714 19.621 1.74057 21.6358L0.160911 29.3036C0.0754599 29.7184 0.44955 30.0816 0.861593 29.984L8.37517 28.2039C10.3055 29.1654 12.4737 29.7208 14.7684 29.7558C22.8664 29.8795 29.6188 23.4495 29.8712 15.3545C30.1418 6.67714 22.9801 -0.397349 14.2724 0.0173493ZM23.2377 23.1167C21.0373 25.3171 18.1117 26.5289 14.9999 26.5289C13.1778 26.5289 11.4333 26.1201 9.81478 25.3139L8.76842 24.7926L4.16182 25.8841L5.13148 21.177L4.61598 20.1675C3.77575 18.5219 3.34971 16.7425 3.34971 14.8788C3.34971 11.7669 4.56152 8.84132 6.76194 6.64083C8.94269 4.46008 11.916 3.22854 15.0001 3.22854C18.1119 3.22861 21.0374 4.44042 23.2378 6.64076C25.4382 8.84117 26.65 11.7667 26.6501 14.8786C26.65 17.9627 25.4185 20.936 23.2377 23.1167Z" fill="white"/>
<path d="M22.2215 18.1056L19.3395 17.2781C18.9606 17.1693 18.5526 17.2768 18.2765 17.5581L17.5717 18.2762C17.2746 18.5789 16.8236 18.6762 16.4303 18.5171C15.067 17.9654 12.1991 15.4155 11.4667 14.14C11.2554 13.7721 11.2903 13.3121 11.5498 12.9764L12.1651 12.1804C12.4061 11.8685 12.457 11.4496 12.2976 11.0891L11.0851 8.34672C10.7946 7.68988 9.95526 7.49867 9.4069 7.96244C8.60254 8.64275 7.64816 9.67655 7.53215 10.8219C7.32759 12.8411 8.19358 15.3866 11.4683 18.443C15.2516 21.974 18.2812 22.4405 20.2537 21.9627C21.3725 21.6917 22.2666 20.6053 22.8309 19.7158C23.2156 19.1093 22.9119 18.3039 22.2215 18.1056Z" fill="white"/>
</g>
<defs>
<clipPath id="clip0">
<rect width="30" height="30" fill="white"/>
</clipPath>
</defs>
</svg>
