<svg width="82" height="82" viewBox="0 0 82 82" fill="none" xmlns="http://www.w3.org/2000/svg">
<path d="M81.9872 63.9863C81.981 63.8081 81.9747 63.629 81.9685 63.4493C81.962 63.2696 81.9554 63.0894 81.9487 62.9083L81.9436 62.7728L81.941 62.7048L81.9403 62.6878L81.9385 62.5359L81.938 62.5288L81.9359 62.5007L81.9185 62.2757C81.8951 61.9754 81.8717 61.6738 81.8483 61.3722L81.8305 61.1439L81.8036 60.8479C81.7849 60.651 81.7663 60.4542 81.7478 60.2578C81.7285 60.0618 81.7092 59.866 81.69 59.6709C81.6801 59.5735 81.6703 59.4762 81.6604 59.3791C81.6485 59.2893 81.6366 59.1996 81.6247 59.1099C81.5264 58.3985 81.4386 57.6993 81.3133 57.0272C81.2541 56.6909 81.1994 56.3602 81.138 56.0379C81.0709 55.7164 81.0053 55.402 80.9414 55.0959C80.8204 54.4832 80.6684 53.911 80.5403 53.3821C80.5075 53.2501 80.4754 53.1206 80.4441 52.9943C80.4092 52.8686 80.375 52.746 80.3418 52.6263C80.2743 52.3875 80.2103 52.161 80.1501 51.9483C80.0888 51.7359 80.0348 51.5365 79.9783 51.3537C79.9201 51.1714 79.8668 51.004 79.8185 50.8528C79.747 50.6306 79.6867 50.4435 79.6391 50.2956C79.5687 50.0773 79.3381 49.9546 79.1175 50.0174L65.2541 53.9682C65.0429 54.0283 64.9119 54.2388 64.9521 54.4547C64.9672 54.5353 64.9843 54.6277 65.0035 54.731C65.0233 54.835 65.0452 54.9503 65.069 55.0758C65.0915 55.2015 65.1092 55.3393 65.1319 55.4849C65.1542 55.6307 65.1779 55.786 65.2028 55.9495C65.215 56.0313 65.2294 56.1146 65.2407 56.2007C65.2505 56.287 65.2606 56.3755 65.2709 56.4657C65.3095 56.8268 65.3672 57.2141 65.3929 57.6292C65.4099 57.8358 65.4275 58.048 65.4454 58.2646C65.4589 58.4819 65.4656 58.7046 65.4772 58.93C65.5072 59.38 65.5015 59.8485 65.5102 60.321L65.5122 60.497L65.5059 60.6528C65.5024 60.7566 65.4988 60.8606 65.4952 60.965C65.4925 61.0688 65.4896 61.173 65.4868 61.2774L65.4835 61.4333L65.474 61.6579C65.4612 61.9602 65.4482 62.2623 65.4353 62.5634L65.4258 62.7889L65.4245 62.8171L65.4242 62.824C65.4244 62.8579 65.4216 62.5554 65.4225 62.686L65.4214 62.6972L65.4172 62.7417L65.409 62.8307C65.3983 62.9492 65.3876 63.067 65.377 63.1848C65.3667 63.3021 65.3564 63.4191 65.3464 63.5354C65.3325 63.6512 65.3188 63.7665 65.305 63.881C65.2756 64.1097 65.2574 64.3363 65.221 64.557C65.1891 64.7779 65.1577 64.9948 65.1269 65.2074C65.0902 65.4184 65.0543 65.625 65.0194 65.8259C64.9878 66.027 64.9455 66.2207 64.9079 66.4082C64.8685 66.5954 64.8372 66.777 64.7963 66.9495C64.7566 67.122 64.7184 67.287 64.6821 67.4441C64.6641 67.5216 64.6467 67.5971 64.6298 67.6707C64.6123 67.7337 64.5955 67.7948 64.579 67.8541C64.5693 67.8903 64.5602 67.9244 64.5508 67.9595H81.5065C81.7338 67.9595 81.9231 67.7812 81.9317 67.5541C81.9318 67.5527 81.9318 67.5514 81.9319 67.55C81.946 67.2343 81.9605 66.9101 81.9753 66.5786C81.9816 66.2475 81.988 65.9091 81.9947 65.5651C82.0043 65.2214 81.9939 64.8721 81.9929 64.5189C81.9909 64.3423 81.9891 64.1648 81.9872 63.9863Z" fill="#A18F5F"/>
<path d="M77.5793 46.1898C77.8068 46.0982 77.9105 45.8347 77.8057 45.6132C77.759 45.5147 77.7046 45.3995 77.6429 45.2693C77.5846 45.1469 77.5202 45.0114 77.4503 44.8639C77.3597 44.6794 77.2619 44.48 77.1572 44.2669C77.0517 44.0547 76.9396 43.8288 76.8211 43.5907C76.7611 43.4669 76.7022 43.3648 76.6405 43.2486C76.579 43.1351 76.5161 43.0189 76.4518 42.9002C76.3226 42.6633 76.1904 42.4157 76.0486 42.1621C75.9021 41.9113 75.7507 41.6518 75.5951 41.3851C75.5171 41.2521 75.4379 41.1172 75.3578 40.9808C75.274 40.8465 75.1892 40.7105 75.1035 40.5731C74.9311 40.2994 74.7549 40.0197 74.5759 39.7353C74.1981 39.1786 73.822 38.5963 73.4023 38.0297C73.2992 37.887 73.1955 37.7438 73.0917 37.6002L72.9355 37.3849L72.7728 37.1732C72.5553 36.8915 72.337 36.6089 72.1186 36.3262C71.8963 36.0468 71.6664 35.7733 71.441 35.4987C71.3271 35.3623 71.2167 35.224 71.1004 35.0907C70.9838 34.9579 70.8676 34.8254 70.7517 34.6934C70.6358 34.5619 70.5204 34.4307 70.4055 34.3003C70.2913 34.1694 70.1761 34.0407 70.0574 33.9162C69.8222 33.6658 69.59 33.4185 69.3616 33.1752C69.1329 32.9326 68.8961 32.7047 68.6707 32.4768C68.4437 32.2501 68.2231 32.0275 67.9978 31.8208C67.775 31.6123 67.5582 31.4094 67.3486 31.2131C67.1399 31.0164 66.9268 30.8378 66.7282 30.6608C66.5281 30.4858 66.3362 30.3181 66.1537 30.1585C65.9666 30.0043 65.789 29.8581 65.6223 29.7207C65.4553 29.5838 65.2992 29.4557 65.1548 29.3372C65.0101 29.2193 64.8718 29.117 64.7498 29.0216C64.5722 28.8853 64.4221 28.7702 64.3029 28.6787C64.1213 28.5392 63.8622 28.569 63.7162 28.7456L56.2754 37.7523C56.1352 37.9222 56.1472 38.1704 56.3036 38.3255C56.3659 38.3869 56.4377 38.458 56.5185 38.5381C56.5959 38.6158 56.6846 38.6982 56.7756 38.7943C56.8666 38.8904 56.9648 38.9944 57.0699 39.1054C57.1751 39.2159 57.2869 39.3335 57.4048 39.4574C57.5184 39.5853 57.638 39.7201 57.7627 39.8605C57.8859 40.0022 58.0205 40.1429 58.1486 40.2998C58.2779 40.4552 58.4114 40.6158 58.5488 40.7809C58.6887 40.943 58.8222 41.119 58.9605 41.2968C59.0973 41.4758 59.2436 41.6523 59.381 41.8416C59.5185 42.0303 59.6582 42.2221 59.7997 42.4163C59.8718 42.5119 59.9403 42.6116 60.0077 42.7127C60.0759 42.8132 60.1444 42.914 60.2132 43.0153C60.2821 43.1162 60.3514 43.2175 60.4207 43.3192C60.49 43.4208 60.5534 43.5272 60.6203 43.6312C60.7517 43.8411 60.8879 44.0479 61.017 44.2593C61.1428 44.4728 61.2688 44.6863 61.3941 44.8989L61.4882 45.0576L61.5763 45.2196C61.6352 45.3271 61.6938 45.4345 61.7522 45.5413C61.9935 45.9633 62.1971 46.3984 62.4102 46.8072C62.5078 47.0168 62.6036 47.2227 62.6976 47.4245C62.7445 47.525 62.791 47.6244 62.8369 47.7226C62.8794 47.8225 62.9214 47.9212 62.9628 48.0186C63.0461 48.2125 63.1271 48.4013 63.2055 48.5837C63.2779 48.7687 63.3479 48.9474 63.415 49.1188C63.4487 49.2044 63.4815 49.2882 63.5136 49.3701C63.544 49.4501 63.5816 49.5366 63.6018 49.6031C63.6497 49.7429 63.695 49.8755 63.7377 50.0002C63.7812 50.1239 63.822 50.2397 63.8596 50.3468C63.9091 50.4945 63.9545 50.6298 63.9955 50.7522C64.0411 50.889 64.0814 51.0098 64.1159 51.1134C64.1934 51.3458 64.4508 51.4643 64.6782 51.373L77.5793 46.1898Z" fill="#A18F5F"/>
<path d="M39.688 30.1024C39.8007 30.1178 39.9253 30.1348 40.0612 30.1534C40.1962 30.1768 40.3422 30.2023 40.4982 30.2295C40.6539 30.2562 40.8197 30.2846 40.9943 30.3147C41.146 30.3399 41.3032 30.3765 41.4666 30.4107L46.1625 20.8053C45.9297 20.7689 45.6988 20.7329 45.4726 20.6976C45.3176 20.6745 45.165 20.648 45.013 20.629C44.861 20.6106 44.7108 20.5924 44.5626 20.5745C44.2666 20.5393 43.9787 20.5051 43.7004 20.472C43.4212 20.4481 43.1515 20.425 42.8926 20.4028C42.6337 20.3829 42.3867 20.3568 42.1503 20.3456C41.9143 20.334 41.6904 20.3229 41.4801 20.3126C41.2699 20.3027 41.0733 20.2934 40.8916 20.2848C40.7097 20.2819 40.5426 20.2792 40.3916 20.2768C40.1793 20.2742 39.9991 20.272 39.8546 20.2703C39.6254 20.2675 39.4358 20.4466 39.4248 20.6755L38.9966 29.6159C38.9861 29.8361 39.145 30.0279 39.3634 30.0579C39.4565 30.0707 39.565 30.0856 39.688 30.1024Z" fill="#A18F5F"/>
<path d="M52.308 35.0252C52.4342 35.1169 52.5538 35.204 52.6662 35.2859C52.7788 35.3665 52.8842 35.4419 52.9816 35.5118C53.0238 35.5408 53.0935 35.5936 53.1504 35.6359C53.209 35.6796 53.2648 35.7213 53.3177 35.7609C53.4333 35.8471 53.5353 35.9232 53.6227 35.9884C53.8191 36.135 54.0979 36.0854 54.2325 35.8805L60.3635 26.5415C60.4982 26.3366 60.4328 26.061 60.2201 25.939C60.1255 25.8848 60.0151 25.8214 59.8901 25.7497C59.8327 25.7167 59.7723 25.6821 59.7088 25.6457C59.6397 25.6066 59.5674 25.5657 59.4921 25.523C59.3176 25.4269 59.1289 25.3231 58.9274 25.212C58.7258 25.1021 58.5111 24.9852 58.2849 24.8619C58.0694 24.7539 57.8429 24.6404 57.6065 24.5219C57.3691 24.406 57.1269 24.2772 56.8672 24.1602C56.6087 24.0418 56.3415 23.9193 56.0668 23.7934C55.794 23.6646 55.506 23.5476 55.2137 23.4249C54.9203 23.3047 54.625 23.1734 54.3166 23.0574C54.2385 23.0278 54.1591 22.9979 54.0804 22.968L51.4355 34.4478C51.5818 34.5397 51.7195 34.637 51.8552 34.7249C52.0132 34.8296 52.1642 34.9298 52.308 35.0252Z" fill="#A18F5F"/>
<path d="M31.4554 30.0555C31.5738 30.0399 31.6901 30.0205 31.8062 30.0083C31.9223 29.9966 32.037 29.9849 32.1501 29.9733C32.3758 29.9499 32.5953 29.9272 32.8077 29.9051C33.0208 29.8908 33.2266 29.877 33.4242 29.8637C33.5228 29.857 33.6193 29.8504 33.7136 29.8439C33.8077 29.8376 33.9019 29.8296 33.9827 29.8295C34.1492 29.8251 34.3073 29.8211 34.4557 29.8172C34.6036 29.8125 34.7419 29.8081 34.87 29.8041C35.0279 29.803 35.1729 29.8021 35.3037 29.8012C35.4479 29.8004 35.5753 29.7998 35.6842 29.7991C35.9293 29.7979 36.122 29.5903 36.1059 29.3456L35.554 20.9238C35.5379 20.6792 35.3199 20.4986 35.0767 20.5293C34.9686 20.5429 34.8423 20.5589 34.6992 20.5769C34.5667 20.5938 34.4198 20.6125 34.26 20.6329C34.0711 20.6609 33.8669 20.6911 33.6486 20.7235C33.431 20.7566 33.1993 20.7919 32.9552 20.8291C32.8302 20.8468 32.7151 20.8701 32.5944 20.8929C32.4739 20.9159 32.3508 20.9395 32.225 20.9635C31.9739 21.012 31.7125 21.0625 31.4416 21.1149C31.1729 21.1761 30.895 21.2394 30.6094 21.3044C30.4668 21.3371 30.3224 21.3703 30.1761 21.404C30.0301 21.4382 29.8836 21.48 29.7351 21.5184C29.4386 21.5974 29.1359 21.6781 28.8279 21.7601C28.523 21.852 28.2131 21.9454 27.8994 22.04C27.743 22.0884 27.5849 22.1341 27.4278 22.1858C27.2714 22.2392 27.1139 22.2928 26.956 22.3467C26.7983 22.4008 26.64 22.455 26.4812 22.5095C26.3224 22.5635 26.1633 22.6178 26.0064 22.6797C25.6918 22.7997 25.376 22.9203 25.0601 23.0409C24.7457 23.164 24.4364 23.3004 24.1264 23.4294C23.9719 23.4953 23.817 23.5588 23.6643 23.6264C23.5127 23.6964 23.3615 23.7661 23.2109 23.8357C23.0606 23.9053 22.9109 23.9747 22.762 24.0436C22.6131 24.1125 22.4648 24.1803 22.3206 24.2552C22.0313 24.4012 21.7455 24.5456 21.4645 24.6875C21.1833 24.8284 20.9154 24.9839 20.6493 25.1271C20.3844 25.273 20.1239 25.4122 19.8782 25.5621C19.631 25.7087 19.3907 25.8513 19.1581 25.9893C18.9249 26.1253 18.7086 26.2722 18.4966 26.405C18.2861 26.5399 18.0844 26.6693 17.8925 26.7923C17.7047 26.9211 17.5266 27.0434 17.3592 27.1582C17.1923 27.2732 17.0361 27.3808 16.8916 27.4803C16.7472 27.5798 16.6196 27.6785 16.5019 27.7637C16.3425 27.8815 16.2064 27.9819 16.0963 28.0633C15.9123 28.199 15.8692 28.4555 15.9978 28.6446L19.4948 33.7861C19.6193 33.9691 19.8626 34.0265 20.0554 33.9176C20.1442 33.8675 20.2492 33.8082 20.3689 33.7408C20.4732 33.683 20.5861 33.6148 20.7136 33.5484C20.841 33.482 20.9788 33.4103 21.1259 33.3337C21.2727 33.257 21.4289 33.1753 21.5935 33.0892C21.761 33.009 21.937 32.9245 22.1206 32.8365C22.3052 32.7505 22.4924 32.6521 22.6943 32.5662C22.8946 32.4782 23.1018 32.3873 23.3148 32.2938C23.5257 32.1967 23.7491 32.1119 23.9751 32.0213C24.2022 31.9332 24.4298 31.8336 24.6681 31.7494C24.9054 31.6639 25.1467 31.577 25.3909 31.4889C25.512 31.4429 25.6366 31.404 25.7615 31.3641C25.8862 31.324 26.0115 31.2837 26.1373 31.2432C26.2628 31.2026 26.3888 31.1619 26.5151 31.121C26.6422 31.0824 26.7711 31.0479 26.8991 31.0109C27.1562 30.9398 27.4116 30.8609 27.6706 30.7948C27.9297 30.7307 28.1888 30.6665 28.4469 30.6027C28.575 30.5687 28.705 30.542 28.8344 30.5153C28.9635 30.4881 29.0923 30.461 29.2206 30.434C29.3485 30.4068 29.476 30.3798 29.6029 30.3529C29.7301 30.3275 29.8579 30.3079 29.984 30.2852C30.2362 30.2414 30.4853 30.1981 30.7305 30.1556C30.9765 30.1217 31.2184 30.0882 31.4554 30.0555Z" fill="#A18F5F"/>
<path d="M7.61129 36.7027C7.51962 36.8323 7.42761 36.9626 7.33517 37.0934C7.24298 37.224 7.15045 37.3552 7.05757 37.4869C6.96513 37.6187 6.87864 37.7554 6.7887 37.8899C6.61141 38.1606 6.42997 38.4293 6.25631 38.7031C6.0867 38.9793 5.91709 39.2554 5.74817 39.5305L5.62215 39.7364L5.50251 39.9457C5.42302 40.0849 5.34378 40.2238 5.2648 40.362C4.94198 40.9103 4.66154 41.4709 4.37653 42.0032C4.24386 42.2747 4.11335 42.5417 3.9856 42.803C3.92225 42.9336 3.8595 43.0629 3.79761 43.1904C3.73934 43.3197 3.68186 43.4476 3.62506 43.5738C3.51199 43.8256 3.40202 44.0708 3.2956 44.3078C3.19633 44.5478 3.10035 44.7797 3.00825 45.0022C2.91796 45.2254 2.82673 45.4366 2.74896 45.6416C2.67222 45.8468 2.59937 46.0415 2.53084 46.2244C2.46265 46.4072 2.39886 46.5781 2.33991 46.7363C2.28544 46.896 2.23547 47.0426 2.19024 47.1751C2.13154 47.3493 2.08113 47.4988 2.03996 47.6212C1.96703 47.8375 2.07794 48.0722 2.29114 48.1539L5.5461 49.4018C5.75326 49.4812 5.98657 49.3885 6.08229 49.1883C6.12977 49.0892 6.18648 48.9706 6.25165 48.8343C6.30568 48.722 6.36541 48.5976 6.43058 48.4622C6.4998 48.3286 6.57464 48.1845 6.65465 48.0302C6.73441 47.8765 6.81917 47.7126 6.90859 47.54C6.99871 47.3678 7.10246 47.1913 7.20543 47.0049C7.3097 46.8195 7.41837 46.6262 7.53084 46.4261C7.64935 46.2299 7.77184 46.0269 7.89786 45.8182C7.96061 45.714 8.02422 45.6085 8.08861 45.5016C8.15637 45.3967 8.22499 45.2907 8.2943 45.1833C8.43293 44.9692 8.57457 44.7507 8.71863 44.5281C9.02471 44.0948 9.32405 43.6385 9.66232 43.1984C9.74492 43.0871 9.82787 42.9755 9.91108 42.8636L10.0358 42.6955L10.1665 42.5312C10.3405 42.312 10.5152 42.0922 10.6899 41.8723C10.8678 41.6551 11.0524 41.4436 11.2319 41.2302C11.3229 41.1243 11.4102 41.0162 11.5033 40.9133C11.5966 40.8105 11.6894 40.7079 11.782 40.6058C11.8743 40.5038 11.9663 40.4022 12.0578 40.301C12.1484 40.1993 12.2399 40.0995 12.3349 40.0037C12.5219 39.8101 12.7066 39.6189 12.8883 39.4306C13.0696 39.2427 13.2589 39.0683 13.4376 38.8921C13.6176 38.7171 13.7918 38.5445 13.9712 38.3863C14.1476 38.2257 14.3192 38.0696 14.4853 37.9184C14.65 37.7664 14.8197 37.6308 14.9764 37.4946C15.1342 37.3602 15.2854 37.2314 15.4292 37.1089C15.5704 36.9971 15.7044 36.8911 15.8303 36.7913C15.9554 36.6917 16.0725 36.5984 16.1809 36.5121C16.2306 36.471 16.2979 36.4218 16.3548 36.3786C16.4131 36.3345 16.4688 36.2925 16.5216 36.2527C16.6367 36.1658 16.7383 36.0892 16.8253 36.0236C17.021 35.8759 17.0513 35.5943 16.8921 35.4079L13.1862 31.0663C13.027 30.8798 12.7441 30.8656 12.5676 31.0356C12.4892 31.1112 12.3974 31.1995 12.2937 31.2996C12.246 31.3454 12.1958 31.3938 12.1431 31.4445C12.0895 31.4966 12.0385 31.5439 11.972 31.6119C11.845 31.7401 11.7077 31.8788 11.5608 32.0269C11.4148 32.1751 11.2593 32.3328 11.0954 32.499C10.9431 32.6641 10.7829 32.8376 10.6158 33.0186C10.4507 33.201 10.2727 33.3847 10.1005 33.5862C9.92765 33.7866 9.74898 33.9938 9.56521 34.2068C9.3792 34.4172 9.19924 34.6433 9.01409 34.8726C8.83032 35.1032 8.63663 35.3332 8.45183 35.577C8.26755 35.8207 8.08024 36.0685 7.89069 36.3195C7.79436 36.4439 7.70227 36.5724 7.61129 36.7027Z" fill="#A18F5F"/>
<path d="M0.876535 51.9249C0.85487 52.0316 0.829493 52.1566 0.80075 52.2978C0.774424 52.4274 0.745249 52.5711 0.713485 52.7274C0.682325 52.8872 0.651856 53.076 0.617847 53.2687C0.584357 53.4632 0.548795 53.6702 0.511334 53.8884C0.493207 53.9972 0.472492 54.1095 0.455315 54.2229C0.440037 54.3355 0.4245 54.4507 0.408532 54.5681C0.347766 55.0388 0.267751 55.5452 0.221659 56.0863C0.194901 56.3558 0.167452 56.6326 0.1394 56.9157C0.116267 57.199 0.100817 57.4892 0.0808777 57.7834C0.0342673 58.3713 0.0257221 58.981 0.00630104 59.5978L0 59.8297L0.0011221 60.0625C0.00198526 60.2179 0.00284842 60.3736 0.00371157 60.5298C0.00466104 60.6858 0.00561052 60.842 0.00647367 60.9983L0.00794104 61.2328L0.0169179 61.4675C0.0296063 61.7797 0.0422947 62.0921 0.054983 62.4032L0.0645641 62.6358L0.0674988 62.7112L0.071642 62.7673L0.0799283 62.8794C0.0909767 63.0289 0.101939 63.178 0.112901 63.3265C0.123863 63.475 0.134825 63.6229 0.145614 63.7701C0.160547 63.9235 0.175307 64.0764 0.190153 64.2283C0.205086 64.3801 0.219932 64.5308 0.234692 64.6806C0.242115 64.7553 0.249538 64.8299 0.256962 64.904C0.266197 64.977 0.275433 65.0498 0.284583 65.1223C0.321353 65.4115 0.357519 65.6959 0.392909 65.9743C0.435635 66.2515 0.477412 66.5228 0.51798 66.7867C0.555959 67.0506 0.6049 67.3058 0.64987 67.5526C0.653582 67.5724 0.657293 67.5919 0.660919 67.6115C0.698466 67.8133 0.874032 67.9594 1.0792 67.9594H2.22643C2.47139 67.9594 2.66577 67.7532 2.65136 67.5088C2.64747 67.4435 2.6435 67.3776 2.6391 67.311C2.62477 67.0731 2.60751 66.8278 2.60198 66.5746C2.5937 66.3219 2.58524 66.0623 2.57652 65.7969C2.57488 65.5318 2.57324 65.2608 2.5716 64.9852C2.57117 64.9164 2.57074 64.8473 2.57031 64.7781C2.57177 64.7098 2.57333 64.6412 2.57488 64.5722C2.5779 64.4348 2.58092 64.2963 2.58403 64.1569C2.58705 64.0178 2.59016 63.8777 2.59327 63.7369C2.60017 63.5896 2.60699 63.4414 2.61398 63.2928C2.62089 63.144 2.62788 62.9947 2.63478 62.8449L2.64005 62.7325L2.64264 62.6762L2.64298 62.6691C2.64298 62.6513 2.64333 62.6856 2.6435 62.6797L2.64454 62.6661L2.6467 62.639L2.66413 62.4212C2.68726 62.1308 2.71048 61.8395 2.73379 61.548L2.75157 61.3298L2.77669 61.1122C2.79343 60.9674 2.81009 60.8227 2.82675 60.6783C2.84332 60.534 2.8599 60.39 2.87638 60.2466L2.90098 60.0318L2.93283 59.8185C3.02018 59.2515 3.09441 58.6936 3.20317 58.1595C3.25419 57.8919 3.29985 57.6286 3.35224 57.3724C3.40929 57.1171 3.46505 56.8674 3.51935 56.6244C3.61982 56.1374 3.75007 55.6848 3.85606 55.2652C3.88325 55.1605 3.90984 55.0579 3.93582 54.9578C3.96327 54.8591 3.99287 54.7657 4.02015 54.6732C4.07513 54.4891 4.12735 54.3145 4.17638 54.1502C4.22653 53.9846 4.2677 53.8366 4.31569 53.6881C4.36602 53.5365 4.41211 53.3976 4.45389 53.272C4.49929 53.1351 4.53942 53.0143 4.57378 52.9107C4.65103 52.6783 4.51612 52.4291 4.27927 52.366L1.40332 51.5991C1.16638 51.5358 0.92539 51.6847 0.876535 51.9249Z" fill="#A18F5F"/>
<path d="M33.4304 66.8314C34.3661 67.2888 35.3572 67.5057 36.333 67.5057C38.7825 67.5057 41.1365 66.1409 42.2847 63.7921C42.5059 63.34 42.677 62.8408 42.7884 62.3707L49.4845 33.3068L52.0346 22.2383L53.6144 15.3816C53.7983 14.5837 53.1635 14.04 52.5267 14.04C52.1539 14.04 51.7803 14.2264 51.5697 14.657L48.3549 21.2328L43.6123 30.9335L30.391 57.9771C28.7852 61.2615 30.1461 65.2258 33.4304 66.8314ZM36.5785 57.4719C38.3703 57.4719 39.8229 58.9244 39.8229 60.7163C39.8229 62.5081 38.3703 63.9608 36.5785 63.9608C34.7867 63.9608 33.3341 62.5081 33.3341 60.7163C33.3341 58.9242 34.7867 57.4719 36.5785 57.4719Z" fill="#A18F5F"/>
</svg>
